<?xml version="1.0" encoding="utf-8"?>
<!-- Generator: Adobe Illustrator 16.0.3, SVG Export Plug-In . SVG Version: 6.00 Build 0)  -->
<!DOCTYPE svg PUBLIC "-//W3C//DTD SVG 1.1//EN" "http://www.w3.org/Graphics/SVG/1.1/DTD/svg11.dtd">
<svg version="1.1" id="Capa_1" xmlns="http://www.w3.org/2000/svg" xmlns:xlink="http://www.w3.org/1999/xlink" x="0px" y="0px"
	 width="85.04px" height="85.04px" viewBox="0 0 85.04 85.04" enable-background="new 0 0 85.04 85.04" xml:space="preserve">
<g>
	<path fill-rule="evenodd" clip-rule="evenodd" d="M54.91,54.991c-0.03,0.677-0.074,1.227-0.075,1.777
		c-0.005,7.279-0.095,14.561,0.036,21.838c0.063,3.521-2.247,5.604-5.528,5.582c-12.318-0.077-24.638-0.028-36.957-0.043
		C9,84.141,7.091,82.242,7.088,78.878C7.076,64.56,7.05,50.241,7.085,35.922c0.019-7.689,5.854-13.816,13.502-14.315
		c1.641-0.107,1.763-0.229,1.771-1.848c0.007-1.32-0.012-2.64,0.003-3.96c0.019-1.637,0.912-2.767,2.549-2.946
		c1.213-0.133,1.554-0.752,1.542-1.824c-0.02-1.8-0.026-3.6-0.003-5.399c0.011-0.912-0.324-1.526-1.219-1.827
		c-0.375-0.126-0.723-0.341-1.069-0.539c-0.553-0.316-1.119-0.76-0.582-1.388c0.238-0.278,0.964-0.311,1.411-0.206
		c2.046,0.476,4.05,1.35,6.109,1.487c2.189,0.146,4.46-0.198,6.627-0.651c2.802-0.586,5.523-0.946,8.196,0.366
		c0.602,0.295,1.197,0.677,1.656,1.153c0.221,0.229,0.294,0.979,0.123,1.121c-0.288,0.24-0.996,0.402-1.227,0.219
		c-3.198-2.55-6.59-1.52-9.943-0.545c-0.435,0.126-0.923,0.907-0.958,1.415c-0.119,1.712-0.045,3.437-0.043,5.156
		c0,0.855,0.408,1.295,1.277,1.429c1.989,0.306,2.797,1.304,2.804,3.351c0.004,1.24-0.002,2.48,0.001,3.72
		c0.005,1.49,0.114,1.635,1.625,1.709c3.867,0.19,7.107,1.736,9.75,4.523c2.097,2.209,3.294,4.865,3.771,7.876
		c0.073,0.464,0.471,0.952,0.85,1.273c0.479,0.406,1.115,0.622,1.647,0.974c1.407,0.931,2.778,1.33,4.58,0.916
		c2.415-0.555,4.691,0.291,6.488,2.036c0.803,0.779,1.57,0.899,2.595,0.631c3.05-0.8,6.117-1.532,9.178-2.288
		c0.194-0.048,0.427-0.166,0.581-0.103c0.422,0.173,0.813,0.425,1.215,0.646c-0.275,0.366-0.485,0.959-0.837,1.06
		c-2.146,0.617-4.325,1.122-6.494,1.662c-0.775,0.193-1.557,0.366-2.327,0.573c-1.381,0.372-1.616,0.736-1.422,2.131
		c0.055,0.396,0.248,0.834,0.139,1.176c-0.146,0.458-0.525,0.841-0.806,1.255c-0.333-0.358-0.894-0.678-0.963-1.082
		c-0.559-3.25-2.159-5.222-5.039-5.812c-0.871-0.178-1.861-0.174-2.715,0.054c-1.475,0.393-2.706,0.114-3.989-0.639
		c-3.31-1.94-6.651-3.825-10.014-5.673c-2.444-1.343-5.366-0.695-6.988,1.452c-0.786,1.041-0.73,1.419,0.4,2.069
		c3.603,2.071,7.216,4.125,10.826,6.186c0.277,0.159,0.551,0.324,0.828,0.483c0.879,0.503,1.407,1.2,1.134,2.261
		c-0.294,1.139-1.111,1.59-2.238,1.578c-0.521-0.005-1.04,0-1.56,0c-8.08,0-16.159,0.009-24.239-0.007
		c-1.781-0.004-3.312,0.541-4.463,1.913c-0.266,0.316-0.451,0.884-0.356,1.255c0.061,0.236,0.698,0.429,1.089,0.456
		c0.956,0.066,1.919,0.006,2.878,0.031c1.04,0.027,1.803,0.499,1.928,1.584c0.112,0.973,0.662,1.11,1.485,1.105
		c4.08-0.023,8.16-0.007,12.239-0.007c13.56,0,27.118-0.002,40.678,0.002c0.354,0,0.768-0.041,1.049,0.119
		c0.296,0.169,0.688,0.605,0.638,0.838c-0.073,0.333-0.466,0.666-0.804,0.85c-0.247,0.136-0.625,0.035-0.944,0.035
		c-8.159,0-16.319,0-24.479,0C56.02,54.991,55.51,54.991,54.91,54.991z M53.032,54.991c-0.656,0-1.128,0-1.6,0
		c-10.156-0.001-20.313,0.003-30.469-0.005c-2.085-0.002-3.234-1.324-3.001-3.396c0.438-3.899,3.479-6.609,7.521-6.62
		c8.357-0.023,16.714-0.011,25.071-0.016c0.374-0.001,0.748-0.039,1.122-0.06c-0.303-0.434-0.657-0.66-1.023-0.867
		c-3.473-1.974-6.946-3.947-10.422-5.916c-2.529-1.432-2.841-3.254-0.901-5.425c0.344-0.384,0.732-0.749,1.157-1.037
		c2.589-1.76,5.28-1.874,8.026-0.389c1.348,0.729,2.668,1.51,4.28,2.426c-0.179-0.753-0.25-1.175-0.38-1.579
		c-1.702-5.3-6.416-8.697-12.184-8.724c-6.118-0.028-12.236-0.022-18.354-0.001c-7.566,0.026-12.965,5.493-12.961,13.06
		c0.008,14.076,0.003,28.15,0.002,42.225c0,2.546,1.094,3.665,3.631,3.665c12.276,0.004,24.551,0.004,36.827,0.002
		c2.565,0,3.655-1.089,3.655-3.64c0.002-7.438,0.001-14.875,0.001-22.313C53.032,55.99,53.032,55.597,53.032,54.991z M30.886,21.569
		c1.798,0,3.598-0.02,5.396,0.007c1.064,0.016,1.523-0.438,1.483-1.52c-0.05-1.357-0.027-2.718-0.002-4.077
		c0.017-0.911-0.409-1.322-1.299-1.321c-3.677,0.003-7.354,0.001-11.032,0.002c-0.837,0-1.242,0.406-1.232,1.257
		c0.015,1.319-0.007,2.638,0.001,3.957c0.01,1.473,0.203,1.677,1.648,1.69C27.528,21.58,29.207,21.568,30.886,21.569z M28.292,8.785
		c0.001,0,0.003,0,0.004,0c0,0.92,0.009,1.839-0.002,2.759c-0.01,0.828,0.339,1.279,1.209,1.267c1-0.015,2-0.003,2.999-0.011
		c0.788-0.006,1.166-0.416,1.164-1.2c-0.004-1.759-0.009-3.519-0.001-5.277c0.003-0.82-0.473-1.141-1.204-1.185
		c-0.998-0.06-1.997-0.085-2.995-0.139c-0.817-0.044-1.176,0.362-1.175,1.147C28.293,7.026,28.292,7.905,28.292,8.785z
		 M19.713,52.32c0.275,0.365,0.399,0.683,0.536,0.688c1.418,0.06,2.837,0.078,4.256,0.074c0.103,0,0.205-0.266,0.308-0.408
		c-0.18-0.118-0.358-0.335-0.541-0.339C22.822,52.308,21.371,52.32,19.713,52.32z"/>
	<path fill-rule="evenodd" clip-rule="evenodd" d="M43.333,15.522c0.234-0.664,0.37-1.387,0.725-1.979
		c0.654-1.092,1.409-2.126,2.173-3.147c0.724-0.968,1.389-0.966,2.099-0.015c0.763,1.022,1.521,2.052,2.207,3.125
		c0.934,1.461,0.769,3.244-0.337,4.559c-1,1.188-2.745,1.643-4.242,1.104C44.468,18.634,43.486,17.21,43.333,15.522z M49.28,15.029
		c-0.451-0.615-1.161-1.583-1.872-2.551c-0.563,0.616-1.165,1.203-1.675,1.861c-0.229,0.296-0.351,0.727-0.388,1.108
		c-0.106,1.119,0.719,2.046,1.816,2.116C48.265,17.633,49.267,16.691,49.28,15.029z"/>
	<path fill-rule="evenodd" clip-rule="evenodd" fill="#FFFFFF" d="M53.032,54.991c0,0.606,0,0.999,0,1.392
		c0,7.438,0.001,14.875-0.001,22.313c0,2.551-1.09,3.64-3.655,3.64c-12.276,0.002-24.551,0.002-36.827-0.002
		c-2.537,0-3.631-1.119-3.631-3.665c0.001-14.075,0.006-28.149-0.002-42.225c-0.004-7.567,5.395-13.034,12.961-13.06
		c6.118-0.021,12.236-0.027,18.354,0.001c5.768,0.027,10.481,3.424,12.184,8.724c0.13,0.403,0.201,0.825,0.38,1.579
		c-1.612-0.916-2.933-1.697-4.28-2.426c-2.746-1.484-5.437-1.371-8.026,0.389c-0.425,0.289-0.813,0.653-1.157,1.037
		c-1.94,2.171-1.628,3.993,0.901,5.425c3.476,1.969,6.949,3.941,10.422,5.916c0.366,0.207,0.721,0.434,1.023,0.867
		c-0.374,0.021-0.748,0.059-1.122,0.06c-8.357,0.005-16.714-0.008-25.071,0.016c-4.042,0.011-7.083,2.721-7.521,6.62
		c-0.233,2.072,0.917,3.395,3.001,3.396c10.156,0.008,20.313,0.004,30.469,0.005C51.904,54.991,52.375,54.991,53.032,54.991z"/>
	<path fill-rule="evenodd" clip-rule="evenodd" fill="#FFFFFF" d="M30.886,21.568c-1.679,0-3.357,0.011-5.036-0.003
		c-1.445-0.013-1.638-0.217-1.648-1.69c-0.009-1.319,0.013-2.638-0.001-3.957c-0.01-0.851,0.395-1.257,1.232-1.257
		c3.677,0,7.354,0.001,11.032-0.002c0.89-0.001,1.315,0.411,1.299,1.321c-0.025,1.359-0.047,2.719,0.002,4.077
		c0.04,1.082-0.419,1.535-1.483,1.52C34.483,21.549,32.684,21.569,30.886,21.568z"/>
	<path fill-rule="evenodd" clip-rule="evenodd" fill="#FFFFFF" d="M28.292,8.785c0-0.879,0.001-1.759,0-2.639
		c-0.001-0.785,0.357-1.191,1.175-1.147c0.998,0.054,1.997,0.079,2.995,0.139c0.731,0.043,1.207,0.365,1.204,1.185
		c-0.008,1.759-0.003,3.518,0.001,5.277c0.002,0.784-0.376,1.193-1.164,1.2c-0.999,0.008-1.999-0.004-2.999,0.011
		c-0.871,0.013-1.22-0.439-1.209-1.267c0.011-0.919,0.002-1.839,0.002-2.759C28.295,8.785,28.294,8.785,28.292,8.785z"/>
	<path fill-rule="evenodd" clip-rule="evenodd" fill="#FFFFFF" d="M19.713,52.32c1.658,0,3.109-0.012,4.56,0.016
		c0.182,0.004,0.36,0.221,0.541,0.339c-0.103,0.143-0.205,0.408-0.308,0.408c-1.419,0.004-2.838-0.015-4.256-0.074
		C20.112,53.002,19.988,52.685,19.713,52.32z"/>
	<path fill-rule="evenodd" clip-rule="evenodd" fill="#FFFFFF" d="M49.28,15.029c-0.013,1.662-1.015,2.604-2.118,2.534
		c-1.098-0.07-1.923-0.997-1.816-2.116c0.037-0.382,0.159-0.813,0.388-1.108c0.51-0.658,1.111-1.245,1.675-1.861
		C48.119,13.445,48.829,14.414,49.28,15.029z"/>
</g>
</svg>
