<?xml version="1.0" encoding="UTF-8"?>
<!DOCTYPE svg PUBLIC "-//W3C//DTD SVG 1.1//EN" "http://www.w3.org/Graphics/SVG/1.1/DTD/svg11.dtd">
<!-- Creator: CorelDRAW X7 -->
<svg xmlns="http://www.w3.org/2000/svg" xml:space="preserve" width="2.73159in" height="1.25747in" version="1.1" style="shape-rendering:geometricPrecision; text-rendering:geometricPrecision; image-rendering:optimizeQuality; fill-rule:evenodd; clip-rule:evenodd"
viewBox="0 0 2522 1161"
 xmlns:xlink="http://www.w3.org/1999/xlink">
 <defs>
  <style type="text/css">
   <![CDATA[
    .fil0 {fill:white}
    .fil1 {fill:white}
   ]]>
  </style>
 </defs>
 <g id="Capa_x0020_1">
  <metadata id="CorelCorpID_0Corel-Layer"/>
  <g id="_2218170743216">
   <path class="fil0" d="M1115 658c-12,0 -23,-3 -32,-8 -8,-5 -15,-12 -20,-21 -4,-9 -7,-20 -7,-33l0 -48c0,-13 3,-24 7,-34 5,-9 12,-16 20,-21 9,-5 20,-7 32,-7 13,0 23,2 32,7 9,5 16,12 20,21 5,10 7,21 7,34l0 48c0,13 -2,24 -7,33 -4,9 -11,16 -20,21 -9,5 -19,8 -32,8zm0 -16c9,0 17,-2 23,-5 7,-4 11,-9 15,-16 3,-7 5,-15 5,-25l0 -49c0,-9 -2,-18 -5,-25 -4,-6 -8,-12 -15,-15 -6,-4 -14,-6 -23,-6 -9,0 -16,2 -23,6 -6,3 -11,9 -14,15 -3,7 -5,16 -5,25l0 49c0,10 2,18 5,25 3,7 8,12 14,16 7,3 14,5 23,5z"/>
   <path class="fil0" d="M2008 905c-12,0 -22,-3 -31,-8 -9,-5 -16,-12 -21,-22 -5,-9 -7,-20 -7,-32l0 -48c0,-12 2,-23 7,-32 5,-10 12,-17 21,-22 9,-5 19,-8 31,-8 11,0 22,3 31,8 9,5 16,12 20,22 5,9 8,20 8,32l0 48c0,12 -3,23 -8,32 -4,10 -11,17 -20,22 -9,5 -20,8 -31,8zm0 -24c7,0 13,-1 18,-4 5,-3 9,-8 12,-14 3,-5 5,-12 5,-19l0 -50c0,-7 -2,-14 -5,-20 -3,-5 -7,-10 -12,-13 -5,-3 -11,-5 -18,-5 -7,0 -13,2 -19,5 -5,3 -9,8 -12,13 -3,6 -4,13 -4,20l0 50c0,7 1,14 4,19 3,6 7,11 12,14 6,3 12,4 19,4z"/>
   <path class="fil0" d="M1460 1152c-12,0 -22,-3 -31,-8 -9,-5 -16,-12 -21,-22 -5,-9 -7,-20 -7,-32l0 -48c0,-12 2,-23 7,-32 5,-10 12,-17 21,-22 9,-5 19,-8 31,-8 12,0 22,3 31,8 9,5 16,12 21,22 4,9 7,20 7,32l0 48c0,12 -3,23 -7,32 -5,10 -12,17 -21,22 -9,5 -19,8 -31,8zm0 -23c7,0 13,-2 18,-5 5,-3 9,-8 12,-13 3,-6 5,-13 5,-20l0 -50c0,-7 -2,-14 -5,-19 -3,-6 -7,-11 -12,-14 -5,-3 -11,-4 -18,-4 -7,0 -13,1 -19,4 -5,3 -9,8 -12,14 -3,5 -4,12 -4,19l0 50c0,7 1,14 4,20 3,5 7,10 12,13 6,3 12,5 19,5z"/>
   <path class="fil1" d="M650 675l0 -610c-54,-7 -109,-5 -164,5 -282,50 -468,325 -416,605 50,274 307,457 580,420l0 -420zm61 -61l110 0 0 61 -110 0 0 472 -25 4c-315,59 -618,-150 -676,-465 -58,-313 150,-621 465,-676 70,-13 140,-13 209,-2l27 5c57,13 112,33 164,63 98,56 183,143 230,246l12 28 -55 25 -13 -28c-41,-91 -118,-169 -204,-218 -43,-24 -88,-42 -134,-53l0 538z"/>
   <polygon class="fil0" points="2283,1091 2371,1091 2371,1113 2283,1113 "/>
   <polygon class="fil0" points="2316,982 2336,982 2398,1150 2373,1150 2326,1015 2279,1150 2254,1150 "/>
   <polygon class="fil0" points="2208,957 2240,929 2255,944 2221,971 "/>
   <polygon class="fil0" points="2231,1150 2207,1150 2207,982 2231,982 "/>
   <path class="fil0" d="M2113 1152c-9,0 -17,-2 -24,-6 -8,-3 -14,-8 -19,-15l20 -14c2,4 5,7 9,9 4,2 9,3 14,3 9,0 17,-3 22,-8 5,-6 7,-14 7,-24l0 -115 24 0 0 115c0,11 -2,21 -6,30 -4,8 -10,14 -18,18 -8,5 -18,7 -29,7z"/>
   <polygon class="fil0" points="1958,982 2054,982 2054,1005 1958,1005 "/>
   <polygon class="fil0" points="1958,1055 2041,1055 2041,1078 1958,1078 "/>
   <polygon class="fil0" points="1958,1128 2054,1128 2054,1150 1958,1150 "/>
   <polygon class="fil0" points="1946,982 1970,982 1970,1150 1946,1150 "/>
   <polygon class="fil0" points="1883,982 1905,982 1905,1150 1882,1150 1882,1024 1883,1032 1841,1127 1825,1127 1784,1034 1785,1024 1785,1150 1762,1150 1762,982 1784,982 1833,1093 "/>
   <path class="fil0" d="M1603 1152c-8,0 -16,-1 -23,-2 -7,-2 -14,-4 -20,-7 -7,-3 -13,-7 -18,-12l0 0 15 -18 0 0c6,6 13,10 21,13 8,2 16,4 25,4 12,0 22,-3 28,-7 7,-5 10,-11 10,-19l0 0c0,-6 -1,-11 -4,-14 -3,-4 -7,-6 -12,-8 -5,-2 -11,-3 -19,-4 0,-1 0,-1 0,-1 -1,0 -1,0 -1,0l-2 0c-11,-2 -20,-4 -27,-7 -7,-2 -13,-6 -19,-13 -5,-6 -7,-15 -7,-27l0 0c0,-11 2,-20 7,-27 5,-7 11,-13 20,-17 9,-4 20,-6 33,-6 6,0 12,1 17,2 6,2 12,4 18,6 5,3 11,6 16,10l0 0 -13 19 0 0c-7,-5 -13,-9 -19,-11 -7,-2 -13,-3 -19,-3 -12,0 -21,2 -27,6 -6,5 -10,12 -10,20l0 0c0,6 2,10 5,14 4,3 8,5 13,7 4,2 11,3 20,5 0,0 1,0 1,0 0,0 0,0 1,0 0,0 0,0 1,0 0,1 1,1 1,1 10,2 19,4 26,7 6,3 12,8 17,14 4,6 7,15 7,26l0 0c0,10 -3,19 -8,27 -5,7 -12,12 -21,16 -9,4 -20,6 -33,6z"/>
   <polygon class="fil0" points="1341,982 1363,982 1363,1150 1340,1150 1340,1024 1341,1032 1299,1127 1283,1127 1242,1034 1243,1024 1243,1150 1220,1150 1220,982 1242,982 1291,1093 "/>
   <polygon class="fil0" points="1079,1091 1167,1091 1167,1113 1079,1113 "/>
   <polygon class="fil0" points="1112,982 1132,982 1194,1150 1169,1150 1122,1015 1076,1150 1050,1150 "/>
   <polygon class="fil0" points="974,1074 997,1069 1040,1150 1012,1150 "/>
   <polygon class="fil0" points="918,982 941,982 941,1150 918,1150 "/>
   <path class="fil0" d="M928 1057l58 0c4,0 8,-1 11,-4 4,-2 7,-5 8,-9 2,-4 3,-8 3,-13l0 0c0,-6 -1,-10 -3,-14 -1,-4 -4,-7 -8,-9 -3,-3 -7,-4 -11,-4l-58 0 0 -22 57 0c9,0 18,2 25,6 8,4 13,10 17,17 4,7 6,16 6,26l0 0c0,9 -2,18 -6,25 -4,7 -10,13 -17,17 -7,4 -16,6 -25,6l-57 0 0 -22z"/>
   <path class="fil0" d="M2460 905c-8,0 -15,-1 -23,-3 -7,-1 -14,-3 -20,-7 -6,-3 -12,-6 -18,-11l0 0 15 -18 0 0c7,5 14,10 21,12 8,3 16,4 25,4 13,0 22,-2 29,-6 6,-5 10,-11 10,-19l0 -1c0,-5 -2,-10 -5,-13 -3,-4 -7,-6 -12,-8 -4,-2 -11,-3 -18,-5 -1,0 -1,0 -1,0 0,0 -1,0 -1,0l-2 0c-11,-2 -20,-4 -27,-7 -7,-2 -13,-7 -18,-13 -5,-6 -8,-16 -8,-27l0 -1c0,-10 3,-19 7,-26 5,-8 12,-13 21,-17 9,-4 19,-6 32,-6 6,0 12,1 18,2 6,1 11,3 17,6 6,3 11,6 17,10l0 0 -14 18 0 0c-6,-4 -12,-8 -19,-10 -6,-2 -13,-4 -19,-4 -11,0 -20,3 -27,7 -6,5 -9,11 -9,20l0 0c0,6 1,10 5,13 3,4 7,6 12,8 5,1 12,3 20,5 1,0 1,0 1,0 0,0 1,0 1,0 0,0 1,0 1,0 1,0 1,0 2,1 10,2 18,4 25,7 7,3 13,7 17,14 5,6 7,15 7,26l0 0c0,10 -2,19 -7,26 -5,8 -12,13 -21,17 -10,4 -21,6 -34,6z"/>
   <polygon class="fil0" points="2280,735 2376,735 2376,757 2280,757 "/>
   <polygon class="fil0" points="2280,808 2364,808 2364,831 2280,831 "/>
   <polygon class="fil0" points="2280,881 2376,881 2376,903 2280,903 "/>
   <polygon class="fil0" points="2268,735 2292,735 2292,903 2268,903 "/>
   <polygon class="fil0" points="2103,735 2124,735 2206,865 2203,868 2203,735 2227,735 2227,903 2205,903 2123,775 2126,772 2126,903 2103,903 "/>
   <polygon class="fil0" points="1911,903 1887,903 1887,735 1911,735 "/>
   <path class="fil0" d="M1798 905c-12,0 -22,-3 -31,-8 -9,-5 -16,-13 -20,-22 -5,-9 -8,-20 -8,-33l0 -46c0,-13 3,-24 8,-33 4,-9 11,-17 20,-22 9,-5 19,-8 31,-8 9,0 18,2 26,6 9,4 15,10 21,18 5,7 9,16 11,26l0 0 -24 0 0 0c-2,-5 -4,-10 -8,-14 -3,-4 -7,-7 -12,-9 -4,-3 -9,-4 -14,-4 -7,0 -13,2 -18,5 -5,3 -9,8 -12,14 -3,6 -4,13 -4,21l0 46c0,8 1,15 4,21 3,6 7,10 12,14 5,3 11,5 18,5 5,0 10,-1 14,-3 5,-3 9,-6 12,-10 4,-4 6,-9 8,-14l0 0 24 0 0 0c-2,10 -6,18 -11,26 -6,8 -13,13 -21,18 -8,4 -17,6 -26,6z"/>
   <polygon class="fil0" points="1611,844 1700,844 1700,866 1611,866 "/>
   <polygon class="fil0" points="1645,735 1665,735 1727,903 1701,903 1655,767 1608,903 1583,903 "/>
   <path class="fil0" d="M1568 812l0 30c0,12 -3,23 -8,33 -5,9 -11,17 -20,22 -9,5 -20,8 -31,8 -12,0 -23,-3 -31,-8 -9,-5 -16,-11 -21,-20 -5,-9 -8,-20 -8,-31l0 -50c0,-13 3,-24 8,-33 4,-9 11,-17 20,-22 9,-5 19,-8 31,-8 10,0 19,2 27,6 8,4 15,10 20,18 6,7 9,16 11,26l0 0 -25 0 0 0c-2,-6 -4,-10 -7,-14 -4,-4 -8,-8 -12,-10 -5,-2 -9,-3 -14,-3 -7,0 -13,2 -18,5 -5,3 -9,8 -12,14 -3,6 -5,13 -5,21l0 50c0,7 2,13 5,19 3,5 7,9 12,12 6,3 12,5 19,5 7,0 13,-2 18,-5 5,-3 9,-8 12,-14 3,-5 4,-13 4,-21l0 -7 -34 0 0 -23 59 0z"/>
   <polygon class="fil0" points="1411,903 1388,903 1388,735 1411,735 "/>
   <polygon class="fil0" points="1324,735 1346,735 1346,903 1323,903 1323,777 1324,784 1283,880 1266,880 1225,787 1226,777 1226,903 1203,903 1203,735 1225,735 1274,846 "/>
   <path class="fil0" d="M1107 905c-13,0 -23,-3 -32,-8 -9,-5 -16,-12 -20,-21 -5,-9 -7,-21 -7,-34l0 -107 23 0 0 108c0,12 4,22 10,28 6,7 15,10 26,10 11,0 20,-3 26,-10 6,-6 9,-16 9,-28l0 -108 24 0 0 107c0,13 -2,25 -7,34 -5,9 -11,16 -20,21 -9,5 -20,8 -32,8z"/>
   <polygon class="fil0" points="929,735 1024,735 1024,757 929,757 "/>
   <polygon class="fil0" points="929,810 1011,810 1011,832 929,832 "/>
   <polygon class="fil0" points="918,735 941,735 941,903 918,903 "/>
   <polygon class="fil0" points="2295,488 2391,488 2391,503 2295,503 "/>
   <polygon class="fil0" points="2295,565 2379,565 2379,580 2295,580 "/>
   <polygon class="fil0" points="2295,640 2391,640 2391,656 2295,656 "/>
   <polygon class="fil0" points="2283,488 2300,488 2300,656 2283,656 "/>
   <polygon class="fil0" points="2130,488 2147,488 2147,656 2130,656 "/>
   <path class="fil0" d="M2146 640l38 0c16,0 28,-3 35,-11 8,-7 12,-18 12,-33l0 -49c0,-15 -4,-26 -12,-33 -7,-7 -19,-11 -35,-11l-38 0 0 -15 38 0c14,0 26,2 35,6 10,5 17,11 22,20 4,9 7,21 7,34l0 48c0,13 -3,24 -7,33 -5,9 -12,16 -22,20 -9,5 -21,7 -35,7l-38 0 0 -16z"/>
   <polygon class="fil0" points="1926,599 2014,599 2014,615 1926,615 "/>
   <polygon class="fil0" points="1959,488 1979,488 2041,656 2023,656 1969,505 1916,656 1897,656 "/>
   <polygon class="fil0" points="1871,656 1854,656 1854,488 1871,488 "/>
   <path class="fil0" d="M1770 476c-3,0 -6,-1 -9,-2 -3,-1 -6,-2 -8,-4 -2,-1 -4,-3 -7,-5l-1 -1c0,0 -1,0 -1,-1 0,0 -1,0 -1,-1 -3,-2 -5,-4 -8,-5 -2,-1 -4,-1 -7,-1 -4,0 -7,1 -9,3 -1,2 -2,6 -2,10l0 6 -13 0 0 -6c0,-9 2,-15 6,-20 4,-4 10,-6 18,-6 5,0 9,1 13,3 3,2 7,4 11,8l1 1c0,0 1,0 1,0 1,1 1,1 1,1 3,2 5,4 7,5 3,1 5,2 7,2 4,0 7,-2 9,-4 2,-2 3,-6 3,-11l0 -6 13 0 0 6c0,10 -2,16 -6,21 -4,4 -10,7 -18,7z"/>
   <polygon class="fil0" points="1685,488 1702,488 1799,639 1792,635 1792,488 1809,488 1809,656 1792,656 1693,503 1702,510 1702,656 1685,656 "/>
   <polygon class="fil0" points="1544,599 1632,599 1632,615 1544,615 "/>
   <polygon class="fil0" points="1577,488 1598,488 1660,656 1641,656 1588,505 1534,656 1516,656 "/>
   <polygon class="fil0" points="1395,488 1411,488 1411,656 1395,656 "/>
   <path class="fil0" d="M1407 575l54 0c6,0 12,-1 17,-4 5,-3 9,-8 12,-13 2,-5 4,-12 4,-19l0 0c0,-7 -2,-13 -4,-19 -3,-5 -7,-9 -12,-12 -5,-3 -11,-5 -17,-5l-54 0 0 -15 53 0c10,0 19,2 26,6 8,4 14,10 18,18 4,8 6,17 6,27l0 0c0,10 -2,19 -6,27 -4,8 -10,14 -18,18 -7,4 -16,7 -26,7l-53 0 0 -16z"/>
   <polygon class="fil0" points="1336,488 1353,488 1353,656 1336,656 1336,511 1338,519 1288,632 1276,632 1225,521 1227,511 1227,656 1210,656 1210,488 1228,488 1282,609 "/>
   <path class="fil0" d="M973 658c-12,0 -22,-3 -31,-8 -9,-5 -15,-13 -20,-22 -5,-10 -8,-21 -8,-33l0 -46c0,-13 3,-24 8,-33 5,-10 11,-17 20,-22 9,-5 19,-8 31,-8 10,0 18,2 27,6 8,4 14,9 20,17 5,7 9,15 11,25l0 0 -17 0 0 0c-2,-7 -5,-12 -9,-17 -4,-5 -9,-9 -15,-11 -5,-3 -11,-5 -17,-5 -8,0 -16,2 -22,6 -6,4 -11,10 -15,17 -3,7 -5,15 -5,25l0 46c0,9 2,18 5,25 4,7 9,12 15,16 6,4 14,6 22,6 6,0 12,-1 17,-4 6,-2 11,-6 15,-11 4,-5 7,-10 9,-17l0 0 17 0 0 0c-2,9 -6,18 -11,25 -6,7 -13,13 -21,17 -8,4 -17,6 -26,6z"/>
  </g>
 </g>
</svg>
