<?xml version="1.0" encoding="UTF-8"?>
<!DOCTYPE svg PUBLIC "-//W3C//DTD SVG 1.1//EN" "http://www.w3.org/Graphics/SVG/1.1/DTD/svg11.dtd">
<!-- Creator: CorelDRAW X7 -->
<svg xmlns="http://www.w3.org/2000/svg" xml:space="preserve" width="1.25562in" height="1.25747in" version="1.1" style="shape-rendering:geometricPrecision; text-rendering:geometricPrecision; image-rendering:optimizeQuality; fill-rule:evenodd; clip-rule:evenodd"
viewBox="0 0 409 409"
 xmlns:xlink="http://www.w3.org/1999/xlink">
 <defs>
  <style type="text/css">
   <![CDATA[
    .str0 {stroke:#373435;stroke-width:0.976927}
    .fil0 {fill:#373435}
   ]]>
  </style>
 </defs>
 <g id="Capa_x0020_1">
  <metadata id="CorelCorpID_0Corel-Layer"/>
  <g id="_2218033628960">
   <path class="fil0" d="M229 238l0 -215c-19,-2 -38,-2 -58,2 -99,17 -165,114 -146,213 17,97 108,161 204,148l0 -148zm22 -22l39 0 0 22 -39 0 0 166 -9 2c-111,21 -218,-53 -239,-164 -20,-110 54,-219 164,-239 25,-4 50,-4 74,0l10 2c20,4 39,11 58,22 34,20 64,50 81,87l4 9 -20 9 -4 -9c-14,-33 -42,-60 -72,-77 -15,-9 -31,-15 -47,-19l0 189z"/>
   <path class="fil0 str0" d="M262 398c0,1 -1,1 -2,0 0,0 -1,0 -1,-1 -1,0 -1,-1 -1,-1l-1 -3c-1,-1 -1,-2 0,-3 0,0 0,-1 0,-1 1,-1 2,-1 2,-1 1,-1 1,-1 2,0 1,0 1,0 2,0 0,1 0,1 1,2l0 0 -1 0 0 0c-1,0 -1,-1 -1,-1 -1,0 -1,0 -1,0 -1,-1 -1,0 -1,0 -1,0 -1,0 -2,0 0,1 0,1 0,2 0,0 0,1 0,1l1 3c0,1 0,1 0,2 1,0 1,0 2,0 0,1 0,1 1,0 0,0 1,0 1,0 0,0 1,-1 1,-1 0,0 0,-1 0,-1l0 0 1 -1 0 0c0,1 0,2 0,2 0,1 -1,1 -1,2 -1,0 -1,0 -2,0zm10 -3c-1,1 -2,1 -2,1 -1,-1 -1,-1 -2,-1 0,-1 -1,-1 -1,-2l-1 -3c0,-1 0,-2 0,-2 0,-1 0,-2 1,-2 0,-1 1,-1 1,-1 1,-1 2,-1 3,0 0,0 1,0 1,0 1,1 1,2 1,2l1 3c1,1 1,2 1,3 -1,0 -1,1 -1,1 -1,1 -1,1 -2,1zm0 -1c0,0 1,0 1,0 0,-1 0,-1 0,-2 1,0 0,-1 0,-1l-1 -3c0,-1 0,-1 -1,-2 0,0 0,0 -1,0 0,-1 -1,0 -1,0 -1,0 -1,0 -2,1 0,0 0,0 0,1 0,0 0,1 0,1l1 3c0,1 1,2 1,2 0,0 1,0 1,1 1,0 1,0 2,-1zm10 -14l1 -1 4 10 -1 1 -3 -9 0 0 0 9 -1 0 -6 -6 0 0 3 8 -1 1 -4 -10 2 -1 6 6 0 -8zm7 3l3 -2c0,0 1,0 1,0 0,-1 0,-1 0,-1 0,-1 0,-1 0,-2l0 0c0,0 0,0 -1,-1 0,0 0,0 -1,0 0,0 0,0 -1,0l-3 1 0 0 3 -2c0,0 1,0 1,0 1,0 2,0 2,0 0,1 1,1 1,2l0 0c0,0 0,1 0,2 0,0 0,1 0,1 0,1 -1,1 -2,1l-3 2 0 -1zm-3 -5l1 -1 4 10 -1 1 -4 -10zm10 -5l1 -1 9 8 -1 0 -8 -7 2 11 -1 0 -2 -11zm2 7l5 -3 1 1 -5 3 -1 -1zm5 -11l1 0 10 5 0 0 -5 -8 1 -1 5 9 -1 1 -10 -5 0 0 5 8 0 0 -6 -9zm16 3l0 0 -7 -9 1 0 6 9zm0 -13l1 -1 9 7 -1 0 -8 -6 3 10 -1 1 -3 -11zm2 7l5 -3 0 0 -4 4 -1 -1zm14 -8l2 -1c1,-1 1,-1 1,-2 0,-1 0,-2 -1,-2l-2 -3c0,0 -1,-1 -2,-1 0,0 -1,0 -2,1l-2 2 0 -1 2 -2c0,0 1,-1 2,-1 0,0 1,0 1,0 1,1 2,1 2,2l2 2c1,1 1,1 1,2 0,1 0,1 0,2 0,0 -1,1 -1,2l-2 1 -1 -1zm-7 -6l1 -1 7 8 -1 1 -7 -8zm8 -7l0 -1 8 8 -1 1 -7 -8zm7 7l5 -5 0 1 -4 4 -1 0zm-3 -4l4 -4 0 1 -4 4 0 -1zm-4 -4l5 -4 0 1 -4 4 -1 -1zm10 -9l0 -1 9 8 -1 0 -8 -7zm4 3l4 -4 0 1 -3 4 -1 -1zm-4 -3l4 -5 1 1 -4 4 -1 0zm17 -2c-1,0 -1,1 -2,1 -1,0 -1,0 -2,0 -1,0 -1,0 -2,-1l-5 -4 0 -1 6 4c1,1 1,1 2,1 1,0 1,0 2,-1 0,-1 1,-2 1,-2 -1,-1 -1,-1 -2,-2l-5 -4 0 -1 6 4c1,1 1,1 1,2 1,0 1,1 1,2 -1,0 -1,1 -1,2zm0 -19l1 -1 8 6 0 1 -8 -5 1 0 4 7 -1 1 -8 -2 0 0 8 5 -1 1 -9 -6 1 -1 8 1 -4 -7zm12 1l0 1 -10 -6 1 -1 9 6zm1 -12l2 1c0,0 1,1 1,1 1,1 1,1 1,2 0,1 0,1 -1,2 0,1 -1,1 -1,2 -1,0 -1,0 -2,0 -1,0 -1,0 -2,0l-3 -2c-1,0 -1,-1 -2,-2 0,0 0,-1 0,-1 0,-1 0,-2 1,-2 0,-1 0,-1 1,-2 0,0 1,0 1,0 1,0 2,0 2,0l0 0 0 1 0 0c-1,0 -1,0 -2,0 0,0 0,0 -1,0 0,0 0,1 -1,1 0,1 0,1 0,2 0,0 0,1 0,1 1,0 1,1 2,1l2 2c1,0 2,0 2,0 0,0 1,0 1,0 1,0 1,-1 1,-1 1,-1 1,-1 1,-2 0,0 0,-1 -1,-1 0,0 0,-1 -1,-1l0 0 -2 2 -1 -1 2 -3zm-2 -7l1 -1 11 1 0 1 -10 -1 7 7 -1 1 -8 -8zm6 5l2 -5 1 0 -2 5 -1 0zm9 -10c0,1 -1,1 -1,2 -1,0 -1,0 -2,0 -1,0 -2,0 -2,0l-3 -1c-1,-1 -1,-1 -2,-2 0,0 0,-1 -1,-1 0,-1 1,-2 1,-2 0,-1 0,-2 1,-2 0,0 1,-1 1,-1 1,0 2,0 2,0l0 0 0 1 0 0c-1,0 -1,0 -1,0 -1,1 -1,1 -2,1 0,0 0,1 0,1 0,0 -1,1 -1,1 1,1 1,1 1,2 0,0 1,0 1,1l3 1c1,0 1,0 2,0 0,0 1,0 1,0 1,0 1,-1 1,-1 0,-1 0,-1 0,-1 0,-1 0,-1 0,-2 0,0 0,0 -1,-1l0 0 1 -1 0 0c0,1 1,1 1,2 0,0 0,1 0,1 0,1 0,2 0,2zm3 -7l0 1 -10 -5 0 -1 10 5zm3 -7c0,1 -1,1 -1,2 -1,0 -1,1 -2,1 -1,0 -1,0 -2,-1l-3 -1c-1,0 -1,-1 -2,-1 0,-1 -1,-1 -1,-2 0,-1 0,-1 1,-2 0,-1 0,-1 1,-2 0,0 1,0 2,0 0,-1 1,0 2,0l3 1c1,0 1,1 2,1 0,1 0,1 0,2 0,1 0,1 0,2zm-1 0c0,-1 0,-1 0,-2 0,0 0,-1 0,-1 -1,0 -1,-1 -2,-1l-3 -1c0,0 -1,0 -1,0 -1,0 -1,0 -2,0 0,0 0,1 0,1 -1,1 -1,1 -1,2 0,0 1,1 1,1 0,0 1,1 1,1l3 1c1,0 1,1 2,0 0,0 1,0 1,0 1,0 1,-1 1,-1zm-7 -10l0 -1 12 -3 -1 0 -9 -3 1 -1 10 4 0 1 -12 3 1 -1 9 3 -1 1 -10 -3zm3 -11l1 -1 10 3 0 1 -11 -3zm10 2l2 -6 1 1 -2 6 -1 -1zm-5 -1l2 -5 1 0 -2 5 -1 0zm-5 -1l2 -6 1 0 -2 6 -1 0zm14 -10c0,1 0,1 0,2 -1,0 -1,1 -1,1 0,0 -1,1 -1,1l0 0 -1 -1 0 0c1,0 1,-1 1,-1 1,-1 1,-1 1,-2 0,-1 0,-1 0,-2 0,-1 -1,-1 -1,-1l0 0c-1,0 -1,0 -1,0 -1,0 -1,0 -1,1 0,0 0,0 -1,1 0,0 0,0 0,0 0,0 0,0 0,0l0 0c0,1 0,2 -1,2 0,0 0,1 -1,1 0,0 -1,0 -1,0l0 0c-1,0 -2,0 -2,-1 0,0 -1,-1 -1,-1 0,-1 0,-2 0,-2 0,-1 1,-1 1,-2 0,0 0,0 0,-1 1,0 1,0 1,0l0 0 1 0 0 0c-1,1 -1,1 -1,2 0,0 -1,0 -1,1 0,1 0,1 0,2 1,0 1,1 2,1l0 0c0,0 1,0 1,0 0,0 0,-1 1,-1 0,0 0,-1 0,-1 0,0 0,0 0,0 0,0 0,0 0,0 0,0 0,0 0,0 0,-1 0,-1 0,-1 1,0 1,-1 1,-1 1,-1 1,-1 1,-1 1,0 1,0 2,0l0 0c1,0 1,0 2,1 0,0 0,1 0,1 0,1 0,2 0,2zm-3 -13l0 -3c0,-1 0,-1 0,-2 0,0 0,0 -1,0 0,-1 0,-1 -1,-1l0 0c0,0 -1,0 -1,0 0,1 -1,1 -1,1 0,0 0,1 0,1l-1 4 -1 0 1 -4c0,-1 0,-1 0,-2 1,0 1,0 2,-1 0,0 1,0 1,0l0 0c1,0 2,1 2,1 0,0 1,1 1,1 0,1 0,1 0,2l0 3 -1 0zm-6 0l0 -1 11 2 0 1 -11 -2zm7 -3l0 -1 5 -2 0 1 -5 2zm-5 -10l0 -1 11 -3 0 1 -10 3 9 4 0 1 -10 -5zm7 3l0 -6 1 0 0 6 -1 0zm-7 -18l0 -1 11 0 0 1 -9 0 0 0 8 3 0 1 -8 3 0 0 9 0 0 1 -11 0 0 -1 8 -3 -8 -4zm11 -8c0,1 0,2 0,2 0,1 -1,1 -2,1 0,1 -1,1 -2,1l-3 0c-1,0 -1,0 -2,0 -1,-1 -1,-1 -1,-2 -1,0 -1,-1 -1,-2 0,-1 0,-1 0,-2 1,0 1,-1 2,-1 0,0 1,-1 2,-1l3 0c1,0 2,0 2,1 1,0 1,0 2,1 0,1 0,1 0,2zm-1 0c0,-1 0,-1 0,-1 0,-1 -1,-1 -1,-1 -1,-1 -1,-1 -2,-1l-3 0c-1,0 -1,1 -2,1 0,0 0,0 -1,1 0,0 0,1 0,1 0,1 0,1 0,2 1,0 1,0 2,1 0,0 1,0 1,0l3 0c1,0 1,0 2,0 0,-1 1,-1 1,-1 0,-1 0,-1 0,-2zm1 -10c0,0 0,1 0,1 -1,1 -1,1 -1,2 0,0 0,1 0,1l0 0 -1 -1 0 0c0,0 0,-1 0,-1 1,-1 1,-1 1,-2 -1,-1 -1,-2 -1,-2 -1,-1 -1,-1 -2,-1l0 0c0,0 -1,0 -1,1 0,0 0,0 0,0 0,1 0,1 0,2 0,0 0,0 0,0 0,0 -1,0 -1,0l0 0c0,1 0,2 0,2 0,1 0,1 -1,1 0,1 0,1 -1,1l0 0c-1,0 -1,0 -2,0 0,-1 -1,-1 -1,-2 0,0 -1,-1 -1,-2 0,0 0,0 0,-1 1,0 1,-1 1,-1 0,0 0,-1 0,-1l0 0 1 0 0 0c0,1 0,1 0,2 -1,0 -1,1 -1,1 0,1 1,2 1,2 1,1 1,1 2,1l0 0c0,0 1,0 1,-1 0,0 0,0 0,-1 0,0 0,0 0,-1 0,0 0,0 0,0 0,0 0,0 0,0 0,0 0,0 0,0 0,0 0,0 0,0 1,-1 1,-2 1,-2 0,-1 0,-1 1,-1 0,-1 0,-1 1,-1l0 0c1,0 1,0 2,0 0,1 1,1 1,2 0,0 1,1 1,2zm-14 -18l0 -1 10 -2 1 1 -10 2 1 -1 8 2 0 1 -7 5 0 0 9 -2 0 1 -11 2 0 -1 7 -5 -8 -2zm-1 -4l0 -1 10 -3 1 1 -11 3zm10 -3l-2 -6 1 0 2 6 -1 0zm-5 1l-2 -5 1 -1 2 6 -1 0zm-5 1l-2 -6 1 0 2 6 -1 0zm8 -13c0,1 0,1 0,2 0,0 0,1 -1,1l0 0c0,-1 0,-1 0,-2 0,0 0,0 0,-1 0,-1 -1,-1 -1,-1 -1,0 -1,0 -2,0l-7 2 -1 -1 7 -2c1,0 2,-1 2,0 1,0 2,0 2,0 0,1 1,1 1,2zm-3 -8l1 1 -11 4 0 -1 10 -4zm-12 -3l0 -1 9 -7 0 1 -8 6 10 1 1 1 -12 -1zm8 0l-2 -5 1 -1 1 6 0 0z"/>
  </g>
 </g>
</svg>
