<?xml version="1.0" encoding="UTF-8" standalone="no"?>
<svg
   xmlns:dc="http://purl.org/dc/elements/1.1/"
   xmlns:cc="http://creativecommons.org/ns#"
   xmlns:rdf="http://www.w3.org/1999/02/22-rdf-syntax-ns#"
   xmlns:svg="http://www.w3.org/2000/svg"
   xmlns="http://www.w3.org/2000/svg"
   viewBox="0 0 487.28375 259.50461"
   height="259.50461"
   width="487.28375"
   id="svg83"
   version="1.1">
  <metadata
     id="metadata89">
    <rdf:RDF>
      <cc:Work
         rdf:about="">
        <dc:format>image/svg+xml</dc:format>
        <dc:type
           rdf:resource="http://purl.org/dc/dcmitype/StillImage" />
        <dc:title></dc:title>
      </cc:Work>
    </rdf:RDF>
  </metadata>
  <defs
     id="defs87" />
  <path
     id="path93"
     d="m 232.35947,259.36723 c -11.08488,-1.07776 -23.67256,-3.79749 -30.25103,-6.53611 -9.07237,-3.77684 -29.95895,-17.57165 -45.24897,-29.88527 C 141.16968,210.31029 131.38285,203 130.15645,203 c -0.56374,0 -2.20507,1.70287 -3.6474,3.78416 -5.37892,7.76178 -18.35668,15.41664 -28.333112,16.71213 -9.28399,1.20557 -18.56371,-1.67898 -31.59975,-9.8226 -9.21201,-5.75474 -13.78798,-7.3536 -24.69891,-8.62987 -8.97505,-1.04983 -21.6798,0.6028 -33.50665,4.35853 -4.35895,1.38422 -8.10681005,2.33533 -8.32856005,2.11358 -0.87695,-0.87695 12.20120005,-15.68391 16.41091005,-18.58026 7.37157,-5.07178 12.27529,-6.26627 23.25857,-5.66553 8.06266,0.44099 11.86612,1.29584 23.14792,5.20265 16.39309,5.67682 24.11261,6.60563 33.58663,4.04113 7.856582,-2.12667 15.140892,-7.48645 18.905862,-13.9109 4.17134,-7.11785 4.46396,-9.35936 2.43856,-18.68025 -2.55659,-11.76547 -2.55733,-33.40548 -0.002,-44.92277 8.06325,-36.33569 32.0107,-63.79561 74.57048,-85.50806 23.81455,-12.14931 41.14296,-16.78809 62.5,-16.73112 10.49993,0.028 15.27782,0.50812 21.5,2.16048 8.7027,2.31109 19.18904,6.87484 23.9744,10.43389 1.66408,1.23763 4.63564,3.17814 6.60347,4.31224 l 3.57786,2.062 1.17765,-5.70159 C 313.71131,20.25313 320.33628,12.32081 332.359,5.28291 338.66766,1.5902 344.96035,0 353.26478,0 c 14.00374,0 24.18506,7.1395 31.43861,22.04586 l 3.89245,7.99914 0.64237,-4.7725 c 1.46101,-10.85449 9.20973,-21.00218 17.81459,-23.3299 2.36867,-0.64075 6.90355,-0.93178 10.0775,-0.64674 16.73755,1.50315 26.65085,10.72824 29.72069,27.65738 1.81169,9.99084 -0.57817,26.39589 -5.15113,35.35962 l -2.00638,3.93283 3.46154,3.62715 c 9.707,10.17143 26.26281,35.00822 34.66605,52.0055 6.76777,13.68919 9.3519,21.56351 9.4525,28.80344 0.0767,5.52221 -0.22458,6.50612 -2.82409,9.22171 -1.73521,1.81269 -5.5704,3.95969 -9.5,5.31822 -6.00327,2.07544 -8.3707,2.27829 -26.59001,2.27829 -11,0 -25.625,-0.38241 -32.5,-0.8498 -12.19656,-0.82918 -12.58439,-0.79219 -15.9762,1.52379 -7.22685,4.9346 -11.14747,14.54319 -11.27647,27.63619 -0.0876,8.89077 1.25092,12.22507 6.89798,17.18326 4.77652,4.19384 11.23339,7.03144 24.92594,10.9542 6.01081,1.72203 11.71868,3.36937 12.68415,3.66076 0.96546,0.29139 3.10296,1.66371 4.75,3.04959 3.54195,2.98037 3.97599,7.14389 1.02328,9.81605 -3.8463,3.48086 -11.27289,3.71401 -33.25507,1.044 l -3.72638,-0.45262 0.59172,4.31707 c 0.54564,3.98087 0.35208,4.48771 -2.48538,6.50816 -4.46672,3.18058 -16.56714,5.14642 -33.15357,5.38614 -16.55584,0.23927 -21.77788,-0.71693 -33,-6.04257 -6.75606,-3.20621 -9.28686,-5.37256 -25.51425,-21.84008 -19.55583,-19.84523 -23.11944,-22.33342 -32.04158,-22.37218 -5.87476,-0.0255 -17.71125,3.65158 -17.17596,5.33585 0.19966,0.6282 5.06109,2.71719 10.80318,4.64219 13.17958,4.41837 19.17992,7.90249 21.29848,12.36702 2.47304,5.21154 2.12507,9.26257 -0.9698,11.29041 -2.30058,1.5074 -3.71102,1.5823 -12.25,0.65053 -11.84263,-1.29227 -13.66613,-0.73583 -14.49088,4.42188 -1.12854,7.05752 -7.4458,10.76823 -19.65919,11.54766 -4.125,0.26325 -9.3,0.30363 -11.5,0.0897 z M 419.87949,101.48965 c 3.44402,-1.78097 5.08529,-4.48884 5.20167,-8.58201 C 425.25474,86.80273 421.17384,83 414.44878,83 c -9.83337,0 -12.31076,15.28038 -3.08931,19.05464 3.04251,1.24528 5.31013,1.09491 8.52002,-0.56499 z M 358.55317,61.46534 c 13.48379,-6.71925 15.32658,-25.64294 3.34249,-34.32417 -9.91103,-7.17951 -23.34705,-5.65327 -30.90023,3.51006 -8.70842,10.56482 -4.16751,27.0234 8.89392,32.23618 4.82322,1.92493 13.23317,1.28414 18.66382,-1.42207 z"
     style="fill:#ffffff" />
</svg>
