<?xml version="1.0" encoding="utf-8"?>
<!-- Generator: Adobe Illustrator 16.0.3, SVG Export Plug-In . SVG Version: 6.00 Build 0)  -->
<!DOCTYPE svg PUBLIC "-//W3C//DTD SVG 1.1//EN" "http://www.w3.org/Graphics/SVG/1.1/DTD/svg11.dtd">
<svg version="1.1" id="Capa_1" xmlns="http://www.w3.org/2000/svg" xmlns:xlink="http://www.w3.org/1999/xlink" x="0px" y="0px"
	 width="141.732px" height="141.732px" viewBox="0 0 141.732 141.732" enable-background="new 0 0 141.732 141.732"
	 xml:space="preserve">
<g>
	<path fill-rule="evenodd" clip-rule="evenodd" fill="#FFFFFF" d="M70.548,114.896c-3.323-5.129-6.026-6.712-9.925-4.882
		c-3.41,1.601-6.335,4.23-8.751,5.904c-0.235-3.122,0.326-7.371-1.048-10.856c-1.618-4.104-6.487-3.916-10.846-4.566
		c4.293-4.787,5.417-10.081,3.567-15.786c-1.876-5.786-5.992-9.066-12.383-9.447c2.142-7.561,0.208-13.99-4.907-19.31
		c-5.287-5.498-11.813-6.832-19.17-4.073c4.229-16.626,43.581-32.416,58.223-23.482c-1.35,1.687-2.748,3.313-4.011,5.039
		c-3.021,4.13-5.172,8.609-5.243,13.867c-0.092,6.822,3.9,12.561,10.163,14.913c1.273-2.525,2.288-5.175,3.846-7.454
		c1.573-2.297,3.685-4.226,5.493-6.242c0.588,0.353,0.886,0.468,0.876,0.537c-0.649,4.294,1.699,5.827,5.35,7.593
		c3.706,1.792,6.545,3.325,9.709-0.693c0.898,4.805-1.269,11.501-4.95,16.169c4.525,4.028,13.044,3.861,18.353-0.392
		c5.001-4.007,7.313-9.545,8.749-15.564c0.242-1.011,0.469-2.024,0.706-3.042c16.026,5.094,26.54,45.094,16.141,61.067
		c-6.513-12.625-21.693-15.808-31.427-6.371c-4.533-4.007-9.758-5.868-15.869-4.353C77.12,104.978,73.139,108.893,70.548,114.896z"
		/>
</g>
</svg>
