<?xml version="1.0" encoding="utf-8"?>
<!-- Generator: Adobe Illustrator 16.0.3, SVG Export Plug-In . SVG Version: 6.00 Build 0)  -->
<!DOCTYPE svg PUBLIC "-//W3C//DTD SVG 1.1//EN" "http://www.w3.org/Graphics/SVG/1.1/DTD/svg11.dtd">
<svg version="1.1" id="Capa_1" xmlns="http://www.w3.org/2000/svg" xmlns:xlink="http://www.w3.org/1999/xlink" x="0px" y="0px"
	 width="85.04px" height="85.04px" viewBox="0 0 85.04 85.04" enable-background="new 0 0 85.04 85.04" xml:space="preserve">
<g>
	<path fill="#FFFFFF" stroke="#FFFFFF" stroke-miterlimit="10" d="M54.871,78.606c0.063,3.521-2.247,5.604-5.528,5.582
		c-12.318-0.077-24.638-0.028-36.957-0.043C9,84.141,7.091,82.242,7.088,78.878C7.076,64.56,7.05,50.241,7.085,35.922
		c0.019-7.689,5.854-13.816,13.502-14.315c1.641-0.107,1.763-0.229,1.771-1.848c0.007-1.32-0.012-2.64,0.003-3.96
		c0.019-1.637,0.912-2.767,2.549-2.946c1.213-0.133,1.554-0.752,1.542-1.824c-0.02-1.8-0.026-3.6-0.003-5.399
		c0.011-0.912-0.324-1.526-1.219-1.827c-0.375-0.126-0.723-0.341-1.069-0.539c-0.553-0.316-1.119-0.76-0.582-1.388
		c0.238-0.278,0.964-0.311,1.411-0.206c2.046,0.476,4.05,1.35,6.109,1.487c2.189,0.146,4.46-0.198,6.627-0.651
		c2.802-0.586,5.523-0.946,8.196,0.366c0.602,0.295,1.197,0.677,1.656,1.153c0.221,0.229,0.294,0.979,0.123,1.121
		c-0.288,0.24-0.996,0.402-1.227,0.219c-3.198-2.55-6.59-1.52-9.943-0.545c-0.435,0.126-0.923,0.907-0.958,1.415
		c-0.119,1.712-0.045,3.437-0.043,5.156c0,0.855,0.408,1.295,1.277,1.429c1.989,0.306,2.797,1.304,2.804,3.351
		c0.004,1.24-0.002,2.48,0.001,3.72c0.005,1.49,0.114,1.635,1.625,1.709c3.867,0.19,7.107,1.736,9.75,4.523
		c2.097,2.209,3.294,4.865,3.771,7.876c0.073,0.464,0.471,0.952,0.85,1.273c0.479,0.406,1.115,0.622,1.647,0.974
		c1.407,0.931,2.778,1.33,4.58,0.916c2.415-0.555,4.691,0.291,6.488,2.036c0.803,0.779,1.57,0.899,2.595,0.631
		c3.05-0.8,6.117-1.532,9.178-2.288c0.194-0.048,0.427-0.166,0.581-0.103c0.422,0.173,0.813,0.425,1.215,0.646
		c-0.275,0.366-0.485,0.959-0.837,1.06c-2.146,0.617-4.325,1.122-6.494,1.662c-0.775,0.193-1.557,0.366-2.327,0.573
		c-1.381,0.372-1.616,0.736-1.422,2.131c0.055,0.396,0.248,0.834,0.139,1.176c-0.146,0.458-0.525,0.841-0.806,1.255
		c-0.333-0.358-0.894-0.678-0.963-1.082c-0.559-3.25-2.159-5.222-5.039-5.812c-0.871-0.178-1.861-0.174-2.715,0.054
		c-1.475,0.393-2.706,0.114-3.989-0.639c-3.31-1.94-6.651-3.825-10.014-5.673c-2.444-1.343-5.366-0.695-6.988,1.452
		c-0.786,1.041-0.73,1.419,0.4,2.069c3.603,2.071,7.216,4.125,10.826,6.186c0.277,0.159,0.551,0.324,0.828,0.483
		c0.879,0.503,1.407,1.2,1.134,2.261c-0.294,1.139-1.111,1.59-2.238,1.578c-0.521-0.005-1.04,0-1.56,0
		c-8.08,0-16.159,0.009-24.239-0.007c-1.781-0.004-3.312,0.541-4.463,1.913c-0.266,0.316-0.451,0.884-0.356,1.255
		c0.061,0.236,0.698,0.429,1.089,0.456c0.956,0.066,1.919,0.006,2.878,0.031c1.04,0.027,1.803,0.499,1.928,1.584
		c0.112,0.973,0.662,1.11,1.485,1.105c4.08-0.023,8.16-0.007,12.239-0.007c13.56,0,27.118-0.002,40.678,0.002
		c0.354,0,0.768-0.041,1.049,0.119c0.296,0.169,0.688,0.605,0.638,0.838c-0.073,0.333-0.466,0.666-0.804,0.85
		c-0.247,0.136-0.625,0.035-0.944,0.035c-8.159,0-16.319,0-24.479,0c-0.51,0-1.02,0-1.62,0c-0.03,0.677-0.074,1.227-0.075,1.777
		 M53.032,54.991c-0.656,0-1.128,0-1.6,0c-10.156-0.001-20.313,0.003-30.469-0.005c-2.085-0.002-3.234-1.324-3.001-3.396
		c0.438-3.899,3.479-6.609,7.521-6.62c8.357-0.023,16.714-0.011,25.071-0.016c0.374-0.001,0.748-0.039,1.122-0.06
		c-0.303-0.434-0.657-0.66-1.023-0.867c-3.473-1.974-6.946-3.947-10.422-5.916c-2.529-1.432-2.841-3.254-0.901-5.425
		c0.344-0.384,0.732-0.749,1.157-1.037c2.589-1.76,5.28-1.874,8.026-0.389c1.348,0.729,2.668,1.51,4.28,2.426
		c-0.179-0.753-0.25-1.175-0.38-1.579c-1.702-5.3-6.416-8.697-12.184-8.724c-6.118-0.028-12.236-0.022-18.354-0.001
		c-7.566,0.026-12.965,5.493-12.961,13.06c0.008,14.076,0.003,28.15,0.002,42.225c0,2.546,1.094,3.665,3.631,3.665
		c12.276,0.004,24.551,0.004,36.827,0.002c2.565,0,3.655-1.089,3.655-3.64c0.002-7.438,0.001-14.875,0.001-22.313
		C53.032,55.99,53.032,55.597,53.032,54.991z M30.886,21.569c1.798,0,3.598-0.02,5.396,0.007c1.064,0.016,1.523-0.438,1.483-1.52
		c-0.05-1.357-0.027-2.718-0.002-4.077c0.017-0.911-0.409-1.322-1.299-1.321c-3.677,0.003-7.354,0.001-11.032,0.002
		c-0.837,0-1.242,0.406-1.232,1.257c0.015,1.319-0.007,2.638,0.001,3.957c0.01,1.473,0.203,1.677,1.648,1.69
		C27.528,21.58,29.207,21.568,30.886,21.569z M28.292,8.785c0.001,0,0.003,0,0.004,0c0,0.92,0.009,1.839-0.002,2.759
		c-0.01,0.828,0.339,1.279,1.209,1.267c1-0.015,2-0.003,2.999-0.011c0.788-0.006,1.166-0.416,1.164-1.2
		c-0.004-1.759-0.009-3.519-0.001-5.277c0.003-0.82-0.473-1.141-1.204-1.185c-0.998-0.06-1.997-0.085-2.995-0.139
		c-0.817-0.044-1.176,0.362-1.175,1.147C28.293,7.026,28.292,7.905,28.292,8.785z M24.505,53.083c0.103,0,0.205-0.266,0.308-0.408
		c-0.18-0.118-0.358-0.335-0.541-0.339c-1.45-0.027-2.901-0.016-4.56-0.016c0.275,0.365,0.399,0.683,0.536,0.688"/>
	<path fill="#FFFFFF" stroke="#FFFFFF" stroke-miterlimit="10" d="M43.333,15.522c0.234-0.664,0.37-1.387,0.725-1.979
		c0.654-1.092,1.409-2.126,2.173-3.147c0.724-0.968,1.389-0.966,2.099-0.015c0.763,1.022,1.521,2.052,2.207,3.125
		c0.934,1.461,0.769,3.244-0.337,4.559c-1,1.188-2.745,1.643-4.242,1.104C44.468,18.634,43.486,17.21,43.333,15.522z M49.28,15.029
		c-0.451-0.615-1.161-1.583-1.872-2.551c-0.563,0.616-1.165,1.203-1.675,1.861c-0.229,0.296-0.351,0.727-0.388,1.108
		c-0.106,1.119,0.719,2.046,1.816,2.116C48.265,17.633,49.267,16.691,49.28,15.029z"/>
</g>
</svg>
