<svg id="Capa_1" enable-background="new 0 0 512 512" height="512" viewBox="0 0 512 512" width="512" style="fill: #fff !important;" xmlns="http://www.w3.org/2000/svg"><g><path d="m472.435 164.331h-.956c-3.723-31.555-30.635-56.113-63.188-56.113-27.531 0-54.107 11.531-72.915 31.635l-54.252 57.994c-31.573-27.125-69.239-46.779-110.21-57.022l-161.595-40.399c-3.005-.75-6.165.423-7.949 2.956-1.785 2.533-1.829 5.902-.11 8.48l69.622 104.432c28.227 42.341 73.223 71.312 123.449 79.484l58.923 9.588c.403.066.807.098 1.206.098 2.551 0 4.964-1.304 6.35-3.512 1.604-2.553 1.522-5.819-.207-8.289-26.143-37.35-64.901-64.011-109.134-75.073l-73.236-18.31-20.681-31.021 36.306 9.076c.61.153 1.222.226 1.825.226 3.36 0 6.418-2.275 7.27-5.683 1.005-4.019-1.438-8.091-5.457-9.095l-52.312-13.078-20.681-31.022 142.775 35.694c59.436 14.859 111.52 50.676 146.666 100.856 2.279 3.329 6.805 4.264 10.228 2.073 3.489-2.233 4.505-6.874 2.272-10.363-.056-.087-.113-.173-.173-.258-10.092-14.418-21.515-27.705-34.045-39.746l54.107-57.839c15.982-17.084 38.565-26.883 61.975-26.883 26.805 0 48.613 21.808 48.613 48.613v29.396c-6.77 3.691-12.441 9.343-16.152 16.48l-32.36 62.232c-18.321 35.233-45.947 64.749-79.893 85.358s-72.878 31.502-112.59 31.502h-184.378c-4.142 0-7.5 3.358-7.5 7.5s3.358 7.5 7.5 7.5h184.376c42.458 0 84.083-11.646 120.375-33.68s65.829-53.591 85.417-91.26l32.36-62.232c4.245-8.161 12.596-13.231 21.794-13.231h28.63c4.142 0 7.5-3.358 7.5-7.5 0-21.816-17.749-39.564-39.565-39.564zm-324.606 68.81c34.623 8.659 65.604 27.699 88.9 54.339l-39.991-6.507c-41.612-6.771-79.315-29.085-105.33-61.937zm328.041-36.746c-1.331 0-2.646.089-3.951.218v-17.283h.516c10.931 0 20.217 7.176 23.394 17.065z"/><path d="m30.675 331.907c4.867-3.1 10.658-3.479 15.887-1.038l70.212 32.766c12.407 5.789 27.027 2.963 36.38-7.036l30.216-32.3c2.83-3.025 2.671-7.771-.354-10.601-3.024-2.83-7.771-2.672-10.601.353l-30.216 32.3c-4.906 5.244-12.576 6.728-19.083 3.691l-70.213-32.766c-9.823-4.584-21.146-3.844-30.288 1.979-9.143 5.823-14.602 15.771-14.602 26.61v26.368c0 4.142 3.358 7.5 7.5 7.5s7.5-3.358 7.5-7.5v-26.368c.003-5.77 2.795-10.858 7.662-13.958z"/><path d="m291.595 281.12c3.393-2.375 4.218-7.052 1.843-10.445-31.684-45.26-78.649-77.566-132.247-90.969l-31.632-7.908c-4.016-1.003-8.09 1.438-9.095 5.457-1.005 4.018 1.438 8.09 5.457 9.095l31.632 7.907c50.091 12.526 93.985 42.719 123.597 85.019 1.459 2.084 3.786 3.199 6.15 3.199 1.485.001 2.986-.439 4.295-1.355z"/><path d="m423.823 171.831v-8.016c0-4.142-3.358-7.5-7.5-7.5s-7.5 3.358-7.5 7.5v8.016c0 4.142 3.358 7.5 7.5 7.5s7.5-3.358 7.5-7.5z"/></g></svg>