<svg id="Capa_1" enable-background="new 0 0 512 512" height="512" viewBox="0 0 512 512" width="512" style="fill: #00c851 !important;" xmlns="http://www.w3.org/2000/svg"><g><path d="m315.205 281.754 196.795-.012-2.043-16.751c-3.09-25.34-19.768-49.35-49.57-71.365-10.656-7.871-21.069-14.016-28.848-18.206 1.457-5.384 2.207-10.966 2.207-16.587 0-34.927-28.415-63.342-63.342-63.342-13.107 0-25.296 4.002-35.411 10.847-33.084-33.832-78.998-53.662-125.608-53.662-92.361 0-167.502 75.142-167.502 167.502 0 11.663 1.684 23.066 4.929 33.936-10.454 4.072-19.92 10.526-27.635 18.986-12.366 13.563-19.177 31.145-19.177 49.51 0 40.526 32.97 73.495 73.495 73.495h89.201c9.189 0 16.665 7.476 16.665 16.666 0 9.189-7.476 16.665-16.665 16.665h-52.191v29.887h52.191c25.669 0 46.552-20.883 46.552-46.553 0-25.669-20.883-46.552-46.552-46.552h-89.201c-24.046 0-43.609-19.563-43.609-43.609 0-18.97 11.959-35.185 29.092-41.159 4.864 7.983 10.71 15.443 17.489 22.222 22.303 22.301 51.955 34.582 83.496 34.58l76.454.002v-29.887h-32.437v-26.607l81.337-.005v56.499h98.583v-29.887h-68.695zm-155.243 26.612c-23.557.001-45.703-9.171-62.361-25.827-16.658-16.657-25.831-38.803-25.831-62.36 0-75.881 61.734-137.616 137.615-137.616 39.192 0 77.844 16.998 105.44 45.916-4.945 9.019-7.763 19.362-7.763 30.353 0 34.927 28.415 63.342 63.342 63.342v-29.887c-18.448 0-33.455-15.008-33.455-33.456 0-18.447 15.008-33.455 33.455-33.455 18.448 0 33.455 15.008 33.455 33.455 0 5.779-1.492 11.469-4.316 16.455l-8.145 14.413 15.165 6.645c15.905 6.969 53.607 28.479 68.148 55.512l-271.588.017c-5.959-42.392-42.462-75.117-86.472-75.117v29.887c31.674 0 57.443 25.769 57.443 57.443v44.279z"/></g></svg>