<?xml version="1.0" encoding="UTF-8"?>
<!DOCTYPE svg PUBLIC "-//W3C//DTD SVG 1.1//EN" "http://www.w3.org/Graphics/SVG/1.1/DTD/svg11.dtd">
<!-- Creator: CorelDRAW X7 -->
<svg xmlns="http://www.w3.org/2000/svg" xml:space="preserve" width="5.85894in" height="5.24244in" version="1.1" style="shape-rendering:geometricPrecision; text-rendering:geometricPrecision; image-rendering:optimizeQuality; fill-rule:evenodd; clip-rule:evenodd"
viewBox="0 0 5589 5001"
 xmlns:xlink="http://www.w3.org/1999/xlink">
 <defs>
  <style type="text/css">
   <![CDATA[
    .str0 {stroke:#E6E7E8;stroke-width:2.86172}
    .fil78 {fill:#FEFEFE}
    .fil157 {fill:#E6E7E8}
    .fil8 {fill:#E6E7E8}
    .fil6 {fill:#FFFEF8}
    .fil4 {fill:#FFFDF2}
    .fil148 {fill:#FEF5ED}
    .fil79 {fill:#FAFCFA}
    .fil3 {fill:#FBFADF}
    .fil80 {fill:#F9F8F8}
    .fil81 {fill:#F7F7F8}
    .fil82 {fill:#F7F7F6}
    .fil83 {fill:#F7F5F5}
    .fil5 {fill:#F4F9F0}
    .fil2 {fill:#F8F4AB}
    .fil9 {fill:#FAF06E}
    .fil84 {fill:#F3F4F4}
    .fil85 {fill:#F4F4F2}
    .fil10 {fill:#F9F06F}
    .fil11 {fill:#F9EF6D}
    .fil86 {fill:#F2F3F2}
    .fil87 {fill:#F2F0EF}
    .fil12 {fill:#F7EE6D}
    .fil13 {fill:#F7EE6A}
    .fil14 {fill:#F7EB6A}
    .fil15 {fill:#F7EB68}
    .fil88 {fill:#EFEFEF}
    .fil89 {fill:#EEEEEE}
    .fil90 {fill:#EFEEEC}
    .fil16 {fill:#F5EA68}
    .fil17 {fill:#F5E868}
    .fil91 {fill:#EDEDEB}
    .fil18 {fill:#F2E766}
    .fil92 {fill:#EAECEB}
    .fil93 {fill:#EAEAEA}
    .fil94 {fill:#EAEAE9}
    .fil19 {fill:#F0E466}
    .fil20 {fill:#F0E464}
    .fil95 {fill:#E8E9E6}
    .fil21 {fill:#EDE364}
    .fil22 {fill:#EDE264}
    .fil23 {fill:#EDE261}
    .fil96 {fill:#E5E6E5}
    .fil24 {fill:#EBE062}
    .fil25 {fill:#EADE62}
    .fil97 {fill:#E2E3E3}
    .fil26 {fill:#E8DE62}
    .fil27 {fill:#E9DE60}
    .fil98 {fill:#E0E2E2}
    .fil99 {fill:#E0E2E0}
    .fil100 {fill:#E0E1E0}
    .fil152 {fill:#D99275}
    .fil28 {fill:#E6DB5E}
    .fil29 {fill:#E6DA5D}
    .fil101 {fill:#DDE0DF}
    .fil30 {fill:#E4D95E}
    .fil31 {fill:#E4D95B}
    .fil102 {fill:#DCDDDC}
    .fil32 {fill:#E1D75A}
    .fil103 {fill:#D9DCDA}
    .fil104 {fill:#D9DAD9}
    .fil33 {fill:#E0D65A}
    .fil34 {fill:#DFD45A}
    .fil35 {fill:#DFD457}
    .fil105 {fill:#D7D9D9}
    .fil106 {fill:#D7D9D7}
    .fil107 {fill:#D7D7D6}
    .fil36 {fill:#DDD358}
    .fil37 {fill:#DDD156}
    .fil108 {fill:#D4D7D6}
    .fil109 {fill:#D4D6D5}
    .fil38 {fill:#DBD056}
    .fil39 {fill:#DBCF56}
    .fil110 {fill:#D2D4D4}
    .fil1 {fill:#D2EAD8}
    .fil40 {fill:#D8CE54}
    .fil41 {fill:#D5CB53}
    .fil111 {fill:#D0D3D3}
    .fil112 {fill:#D0D3D2}
    .fil42 {fill:#D5C951}
    .fil113 {fill:#D0D1D1}
    .fil43 {fill:#D3C852}
    .fil44 {fill:#D3C84F}
    .fil114 {fill:#CED1D0}
    .fil115 {fill:#CECFCF}
    .fil45 {fill:#D0C650}
    .fil46 {fill:#D1C64E}
    .fil116 {fill:#CBCECE}
    .fil47 {fill:#D0C54E}
    .fil117 {fill:#CBCDCE}
    .fil118 {fill:#CCCDCC}
    .fil151 {fill:#B84038}
    .fil48 {fill:#CEC44F}
    .fil49 {fill:#CEC44D}
    .fil119 {fill:#C9CCCC}
    .fil50 {fill:#CBC14C}
    .fil51 {fill:#CBC14A}
    .fil120 {fill:#C7C9CB}
    .fil121 {fill:#C7C9C9}
    .fil122 {fill:#C7C9C7}
    .fil52 {fill:#CBBF4A}
    .fil123 {fill:#C5C8C7}
    .fil53 {fill:#C8BE49}
    .fil124 {fill:#C5C7C7}
    .fil54 {fill:#C7BE4A}
    .fil125 {fill:#C0C3C4}
    .fil55 {fill:#C7BC48}
    .fil56 {fill:#C5BA47}
    .fil126 {fill:#C0C1C2}
    .fil127 {fill:#BEC1C1}
    .fil128 {fill:#BEC1C0}
    .fil57 {fill:#C2B846}
    .fil58 {fill:#C1B746}
    .fil129 {fill:#BCBEBE}
    .fil59 {fill:#BFB646}
    .fil130 {fill:#BBBDBE}
    .fil60 {fill:#BFB546}
    .fil61 {fill:#BDB445}
    .fil131 {fill:#B8BBBB}
    .fil132 {fill:#B8BBBA}
    .fil62 {fill:#BDB345}
    .fil63 {fill:#BDB343}
    .fil64 {fill:#BBB143}
    .fil133 {fill:#B6B8B9}
    .fil65 {fill:#BAAF42}
    .fil134 {fill:#B4B7B9}
    .fil135 {fill:#B2B4B6}
    .fil136 {fill:#B2B4B4}
    .fil66 {fill:#B7AD42}
    .fil67 {fill:#B7AD41}
    .fil68 {fill:#B6AC41}
    .fil69 {fill:#B6AC3F}
    .fil137 {fill:#B0B4B4}
    .fil138 {fill:#B0B4B3}
    .fil70 {fill:#B4AB40}
    .fil139 {fill:#B0B2B2}
    .fil71 {fill:#B2A83F}
    .fil72 {fill:#B2A83E}
    .fil0 {fill:#B4DCC0}
    .fil140 {fill:#ADB0B1}
    .fil141 {fill:#ADAFAF}
    .fil73 {fill:#B0A63F}
    .fil74 {fill:#AFA53D}
    .fil142 {fill:#ABAEAF}
    .fil75 {fill:#ABA13D}
    .fil143 {fill:#A9AEAE}
    .fil144 {fill:#A9ACAD}
    .fil145 {fill:#A8AAAB}
    .fil76 {fill:#AAA13E}
    .fil77 {fill:#A89E3D}
    .fil146 {fill:#A5AAAB}
    .fil147 {fill:#A6A8A8}
    .fil153 {fill:#353739}
    .fil154 {fill:#21BF73}
    .fil155 {fill:#B0EACD}
    .fil150 {fill:#EBA49F}
    .fil7 {fill:#F9FCFB}
    .fil156 {fill:#FD5E53}
    .fil149 {fill:#FD5E53}
   ]]>
  </style>
 </defs>
 <g id="Capa_x0020_1">
  <metadata id="CorelCorpID_0Corel-Layer"/>
  <g id="_2217963393904">
   <path class="fil0" d="M1773 4771l-1667 0c-68,-135 -106,-286 -106,-446 0,-551 453,-1000 1020,-1022l0 1161c0,38 33,67 68,67l333 0c35,0 64,-29 64,-67l0 -1078c37,15 73,32 108,52l0 1020c0,38 23,61 54,61l49 0c11,89 37,174 77,252zm214 -949l0 -5c1,1 1,2 2,3 -1,1 -1,2 -2,2z"/>
   <path class="fil0" d="M2545 4771l-772 0 248 0c68,-135 106,-286 106,-446 0,-184 -50,-356 -138,-505 141,-112 323,-179 520,-179 334,0 622,193 749,469 -57,38 -105,87 -143,143 -59,-32 -127,-50 -200,-50 -227,0 -411,177 -411,395 0,62 15,121 41,173z"/>
   <path class="fil1" d="M2021 4771l-248 0c-40,-78 -66,-163 -77,-252l240 0c30,0 51,-23 51,-61l0 -636c1,0 1,-1 2,-2 88,149 138,321 138,505 0,160 -38,311 -106,446z"/>
   <path class="fil2" d="M3262 4118c-2,-3 -3,-5 -4,-8 11,-8 23,-16 35,-23 -11,10 -21,21 -31,31z"/>
   <path class="fil3" d="M3154 4277c-12,-9 -25,-17 -39,-24 38,-56 86,-105 143,-143 1,3 2,5 4,8 -45,47 -81,100 -108,159z"/>
   <path class="fil0" d="M5510 4771l-1246 0c39,-78 61,-165 61,-257 0,-182 -87,-346 -223,-454 137,-231 395,-387 692,-387 439,0 795,342 795,765 0,119 -29,232 -79,333z"/>
   <path class="fil0" d="M4264 4771l-979 0 788 0c1,-2 1,-4 2,-6 1,2 2,4 3,6l186 0zm-237 -536c-100,-135 -264,-224 -450,-224 -103,0 -201,28 -284,76 110,-100 258,-161 421,-161 147,0 283,51 388,134 -32,55 -57,114 -75,175z"/>
   <path class="fil1" d="M4073 4771l-788 0c26,-52 41,-111 41,-173 0,-22 -2,-45 -6,-67 5,-34 7,-68 7,-103 0,-110 -23,-215 -65,-310 10,-10 20,-21 31,-31 83,-48 181,-76 284,-76 186,0 350,89 450,224 -18,65 -28,133 -28,203 0,117 27,228 76,327 -1,2 -1,4 -2,6z"/>
   <path class="fil4" d="M3320 4531c-18,-104 -80,-195 -166,-254 27,-59 63,-112 108,-159 42,95 65,200 65,310 0,35 -2,69 -7,103z"/>
   <path class="fil1" d="M4264 4771l-186 0c-1,-2 -2,-4 -3,-6 34,-68 52,-144 52,-225 0,-113 -37,-218 -100,-305 18,-61 43,-120 75,-175 136,108 223,272 223,454 0,92 -22,179 -61,257z"/>
   <path class="fil5" d="M4075 4765c-49,-99 -76,-210 -76,-327 0,-70 10,-138 28,-203 63,87 100,192 100,305 0,81 -18,157 -52,225z"/>
   <path class="fil1" d="M3082 4771l-537 0c-26,-52 -41,-111 -41,-173 0,-218 184,-395 411,-395 73,0 141,18 200,50 -55,83 -88,181 -88,287 0,83 20,161 55,231z"/>
   <path class="fil5" d="M3163 4771l-81 0c-35,-70 -55,-148 -55,-231 0,-106 33,-204 88,-287 14,7 27,15 39,24 -33,72 -52,153 -52,237 0,92 22,179 61,257z"/>
   <path class="fil4" d="M3285 4771l-122 0 83 0c37,-74 63,-155 74,-240 4,22 6,45 6,67 0,62 -15,121 -41,173z"/>
   <path class="fil6" d="M3246 4771l-83 0c-39,-78 -61,-165 -61,-257 0,-84 19,-165 52,-237 86,59 148,150 166,254 -11,85 -37,166 -74,240z"/>
   <path class="fil7" d="M2364 4889l-761 0c-47,0 -85,-38 -85,-85 0,-47 38,-85 85,-85l761 0c47,0 85,38 85,85 0,47 -38,85 -85,85z"/>
   <path class="fil8" d="M1485 2347l0 2117c0,38 -29,67 -64,67l-333 0c-35,0 -68,-29 -68,-67l0 -2117c0,-9 2,-18 5,-26 11,-27 37,-47 63,-47l333 0c35,0 64,35 64,73z"/>
   <path class="fil8" d="M1987 4458c0,38 -21,61 -51,61l-289 0c-31,0 -54,-23 -54,-61l0 -2117c0,-38 23,-67 54,-67l289 0c30,0 51,29 51,67l0 2117z"/>
   <path class="fil8" d="M2023 1355l0 1804c0,26 -15,45 -36,53 -8,4 -17,5 -26,5l-877 0c-16,0 -32,-5 -44,-15 -7,-6 -13,-13 -16,-21l0 0c-3,-7 -4,-14 -4,-22l0 -1804c0,-4 0,-8 1,-11l0 -3c1,-4 2,-8 4,-12 10,-24 34,-43 58,-44l1 0 877 0c26,0 50,22 59,50 2,6 3,13 3,20z"/>
   <path class="fil9" d="M1029 1196l0 125c-2,3 -3,6 -4,8l0 -108c0,-9 1,-17 4,-25z"/>
   <path class="fil10" d="M1033 1187l0 128c-2,2 -3,4 -4,6l0 -125c1,-3 2,-6 4,-9z"/>
   <path class="fil10" d="M1037 1180l0 130c-2,2 -3,3 -4,5l0 -128c1,-3 2,-5 4,-7z"/>
   <path class="fil11" d="M1041 1174l0 132c-2,1 -3,3 -4,4l0 -130c1,-2 2,-4 4,-6z"/>
   <path class="fil11" d="M1044 1170l0 132c-1,1 -2,2 -3,4l0 -132c1,-1 2,-3 3,-4z"/>
   <path class="fil11" d="M1048 1166l0 133c-1,1 -2,2 -4,3l0 -132c2,-1 3,-3 4,-4z"/>
   <path class="fil11" d="M1052 1163l0 133c-1,1 -2,2 -4,3l0 -133c2,-1 3,-2 4,-3z"/>
   <path class="fil11" d="M1056 1161l0 132c-1,1 -2,2 -4,3l0 -133c2,-1 3,-2 4,-2z"/>
   <path class="fil11" d="M1060 1159l0 132c-1,1 -3,2 -4,2l0 -132c1,-1 3,-2 4,-2z"/>
   <path class="fil12" d="M1064 1157l0 132c-1,1 -3,2 -4,2l0 -132c1,-1 3,-2 4,-2z"/>
   <path class="fil12" d="M1068 1155l0 133c-2,0 -3,1 -4,1l0 -132c1,-1 2,-1 4,-2z"/>
   <path class="fil13" d="M1072 1154l0 133c-2,0 -3,1 -4,1l0 -133c1,0 2,0 4,-1z"/>
   <path class="fil13" d="M1076 1154l0 132c-2,0 -3,1 -4,1l0 -133c1,0 2,0 4,0z"/>
   <path class="fil14" d="M1079 1153l0 133c-1,0 -2,0 -3,0l0 -132c1,-1 2,-1 3,-1z"/>
   <path class="fil14" d="M1082 1153l1 0 0 132 0 0c-1,0 -2,0 -4,1l0 -133c1,0 2,0 3,0z"/>
   <polygon class="fil14" points="1083,1153 1087,1153 1087,1285 1084,1285 1083,1285 "/>
   <polygon class="fil14" points="1087,1153 1091,1153 1091,1285 1087,1285 "/>
   <polygon class="fil15" points="1091,1153 1095,1153 1095,1285 1091,1285 "/>
   <polygon class="fil15" points="1095,1153 1099,1153 1099,1285 1095,1285 "/>
   <polygon class="fil16" points="1099,1153 1103,1153 1103,1285 1099,1285 "/>
   <polygon class="fil16" points="1103,1153 1107,1153 1107,1285 1103,1285 "/>
   <polygon class="fil17" points="1107,1153 1111,1153 1111,1285 1107,1285 "/>
   <polygon class="fil17" points="1111,1153 1114,1153 1114,1285 1111,1285 "/>
   <polygon class="fil18" points="1114,1153 1118,1153 1118,1285 1114,1285 "/>
   <polygon class="fil18" points="1118,1153 1122,1153 1122,1285 1118,1285 "/>
   <polygon class="fil18" points="1122,1153 1126,1153 1126,1285 1122,1285 "/>
   <polygon class="fil18" points="1126,1153 1130,1153 1130,1285 1126,1285 "/>
   <polygon class="fil18" points="1130,1153 1134,1153 1134,1285 1130,1285 "/>
   <polygon class="fil18" points="1134,1153 1138,1153 1138,1285 1134,1285 "/>
   <polygon class="fil19" points="1138,1153 1142,1153 1142,1285 1138,1285 "/>
   <polygon class="fil19" points="1142,1153 1145,1153 1145,1285 1142,1285 "/>
   <polygon class="fil19" points="1145,1153 1149,1153 1149,1285 1145,1285 "/>
   <polygon class="fil19" points="1149,1153 1153,1153 1153,1285 1149,1285 "/>
   <polygon class="fil20" points="1153,1153 1157,1153 1157,1285 1153,1285 "/>
   <polygon class="fil20" points="1157,1153 1161,1153 1161,1285 1157,1285 "/>
   <polygon class="fil21" points="1161,1153 1165,1153 1165,1285 1161,1285 "/>
   <polygon class="fil21" points="1165,1153 1169,1153 1169,1285 1165,1285 "/>
   <polygon class="fil22" points="1169,1153 1173,1153 1173,1285 1169,1285 "/>
   <polygon class="fil22" points="1173,1153 1177,1153 1177,1285 1173,1285 "/>
   <polygon class="fil22" points="1177,1153 1180,1153 1180,1285 1177,1285 "/>
   <polygon class="fil22" points="1180,1153 1184,1153 1184,1285 1180,1285 "/>
   <polygon class="fil23" points="1184,1153 1188,1153 1188,1285 1184,1285 "/>
   <polygon class="fil23" points="1188,1153 1192,1153 1192,1285 1188,1285 "/>
   <polygon class="fil24" points="1192,1153 1196,1153 1196,1285 1192,1285 "/>
   <polygon class="fil24" points="1196,1153 1200,1153 1200,1285 1196,1285 "/>
   <polygon class="fil25" points="1200,1153 1204,1153 1204,1285 1200,1285 "/>
   <polygon class="fil25" points="1204,1153 1208,1153 1208,1285 1204,1285 "/>
   <polygon class="fil25" points="1208,1153 1212,1153 1212,1285 1208,1285 "/>
   <polygon class="fil25" points="1212,1153 1215,1153 1215,1285 1212,1285 "/>
   <polygon class="fil26" points="1215,1153 1219,1153 1219,1285 1215,1285 "/>
   <polygon class="fil26" points="1219,1153 1223,1153 1223,1285 1219,1285 "/>
   <polygon class="fil26" points="1223,1153 1227,1153 1227,1285 1223,1285 "/>
   <polygon class="fil26" points="1227,1153 1231,1153 1231,1285 1227,1285 "/>
   <polygon class="fil27" points="1231,1153 1235,1153 1235,1285 1231,1285 "/>
   <polygon class="fil27" points="1235,1153 1239,1153 1239,1285 1235,1285 "/>
   <polygon class="fil27" points="1239,1153 1243,1153 1243,1285 1239,1285 "/>
   <polygon class="fil27" points="1243,1153 1247,1153 1247,1285 1243,1285 "/>
   <polygon class="fil28" points="1247,1153 1250,1153 1250,1285 1247,1285 "/>
   <polygon class="fil28" points="1250,1153 1254,1153 1254,1285 1250,1285 "/>
   <polygon class="fil28" points="1254,1153 1258,1153 1258,1285 1254,1285 "/>
   <polygon class="fil28" points="1258,1153 1262,1153 1262,1285 1258,1285 "/>
   <polygon class="fil29" points="1262,1153 1266,1153 1266,1285 1262,1285 "/>
   <polygon class="fil29" points="1266,1153 1270,1153 1270,1285 1266,1285 "/>
   <polygon class="fil29" points="1270,1153 1274,1153 1274,1285 1270,1285 "/>
   <polygon class="fil29" points="1274,1153 1278,1153 1278,1285 1274,1285 "/>
   <polygon class="fil29" points="1278,1153 1281,1153 1281,1285 1278,1285 "/>
   <polygon class="fil30" points="1281,1153 1285,1153 1285,1285 1281,1285 "/>
   <polygon class="fil30" points="1285,1153 1289,1153 1289,1285 1285,1285 "/>
   <polygon class="fil30" points="1289,1153 1293,1153 1293,1285 1289,1285 "/>
   <polygon class="fil30" points="1293,1153 1297,1153 1297,1285 1293,1285 "/>
   <polygon class="fil31" points="1297,1153 1301,1153 1301,1285 1297,1285 "/>
   <polygon class="fil31" points="1301,1153 1305,1153 1305,1285 1301,1285 "/>
   <polygon class="fil31" points="1305,1153 1309,1153 1309,1285 1305,1285 "/>
   <polygon class="fil31" points="1309,1153 1313,1153 1313,1285 1309,1285 "/>
   <polygon class="fil32" points="1313,1153 1316,1153 1316,1285 1313,1285 "/>
   <polygon class="fil32" points="1316,1153 1320,1153 1320,1285 1316,1285 "/>
   <polygon class="fil32" points="1320,1153 1324,1153 1324,1285 1320,1285 "/>
   <polygon class="fil32" points="1324,1153 1328,1153 1328,1285 1324,1285 "/>
   <polygon class="fil33" points="1328,1153 1332,1153 1332,1285 1328,1285 "/>
   <polygon class="fil33" points="1332,1153 1336,1153 1336,1285 1332,1285 "/>
   <polygon class="fil34" points="1336,1153 1340,1153 1340,1285 1336,1285 "/>
   <polygon class="fil34" points="1340,1153 1344,1153 1344,1285 1340,1285 "/>
   <polygon class="fil34" points="1344,1153 1348,1153 1348,1285 1344,1285 "/>
   <polygon class="fil34" points="1348,1153 1351,1153 1351,1285 1348,1285 "/>
   <polygon class="fil35" points="1351,1153 1355,1153 1355,1285 1351,1285 "/>
   <polygon class="fil35" points="1355,1153 1359,1153 1359,1285 1355,1285 "/>
   <polygon class="fil36" points="1359,1153 1363,1153 1363,1285 1359,1285 "/>
   <polygon class="fil36" points="1363,1153 1367,1153 1367,1285 1363,1285 "/>
   <polygon class="fil36" points="1367,1153 1371,1153 1371,1285 1367,1285 "/>
   <polygon class="fil36" points="1371,1153 1375,1153 1375,1285 1371,1285 "/>
   <polygon class="fil37" points="1375,1153 1379,1153 1379,1285 1375,1285 "/>
   <polygon class="fil37" points="1379,1153 1383,1153 1383,1285 1379,1285 "/>
   <polygon class="fil37" points="1383,1153 1386,1153 1386,1285 1383,1285 "/>
   <polygon class="fil37" points="1386,1153 1390,1153 1390,1285 1386,1285 "/>
   <polygon class="fil38" points="1390,1153 1394,1153 1394,1285 1390,1285 "/>
   <polygon class="fil38" points="1394,1153 1398,1153 1398,1285 1394,1285 "/>
   <polygon class="fil38" points="1398,1153 1402,1153 1402,1285 1398,1285 "/>
   <polygon class="fil38" points="1402,1153 1406,1153 1406,1285 1402,1285 "/>
   <polygon class="fil39" points="1406,1153 1410,1153 1410,1285 1406,1285 "/>
   <polygon class="fil39" points="1410,1153 1414,1153 1414,1285 1410,1285 "/>
   <polygon class="fil39" points="1414,1153 1417,1153 1417,1285 1414,1285 "/>
   <polygon class="fil39" points="1417,1153 1421,1153 1421,1285 1417,1285 "/>
   <polygon class="fil40" points="1421,1153 1425,1153 1425,1285 1421,1285 "/>
   <polygon class="fil40" points="1425,1153 1429,1153 1429,1285 1425,1285 "/>
   <polygon class="fil40" points="1429,1153 1433,1153 1433,1285 1429,1285 "/>
   <polygon class="fil40" points="1433,1153 1437,1153 1437,1285 1433,1285 "/>
   <polygon class="fil41" points="1437,1153 1441,1153 1441,1285 1437,1285 "/>
   <polygon class="fil41" points="1441,1153 1445,1153 1445,1285 1441,1285 "/>
   <polygon class="fil41" points="1445,1153 1449,1153 1449,1285 1445,1285 "/>
   <polygon class="fil41" points="1449,1153 1452,1153 1452,1285 1449,1285 "/>
   <polygon class="fil42" points="1452,1153 1456,1153 1456,1285 1452,1285 "/>
   <polygon class="fil42" points="1456,1153 1460,1153 1460,1285 1456,1285 "/>
   <polygon class="fil43" points="1460,1153 1464,1153 1464,1285 1460,1285 "/>
   <polygon class="fil43" points="1464,1153 1468,1153 1468,1285 1464,1285 "/>
   <polygon class="fil43" points="1468,1153 1472,1153 1472,1285 1468,1285 "/>
   <polygon class="fil43" points="1472,1153 1476,1153 1476,1285 1472,1285 "/>
   <polygon class="fil44" points="1476,1153 1480,1153 1480,1285 1476,1285 "/>
   <polygon class="fil44" points="1480,1153 1484,1153 1484,1285 1480,1285 "/>
   <path class="fil45" d="M1484 1153l3 0 0 132 -3 0 0 -132zm3 2064l0 9 -2 0 0 -9 2 0z"/>
   <path class="fil45" d="M1487 1153l4 0 0 132 -4 0 0 -132zm4 2064l0 9 -4 0 0 -9 4 0z"/>
   <path class="fil45" d="M1491 1153l4 0 0 132 -4 0 0 -132zm4 2064l0 9 -4 0 0 -9 4 0z"/>
   <path class="fil45" d="M1495 1153l4 0 0 132 -4 0 0 -132zm4 2064l0 9 -4 0 0 -9 4 0z"/>
   <path class="fil45" d="M1499 1153l4 0 0 132 -4 0 0 -132zm4 2064l0 9 -4 0 0 -9 4 0z"/>
   <path class="fil45" d="M1503 1153l4 0 0 132 -4 0 0 -132zm4 2064l0 9 -4 0 0 -9 4 0z"/>
   <path class="fil45" d="M1507 1153l4 0 0 132 -4 0 0 -132zm4 2064l0 9 -1 0 -3 0 0 -9 4 0z"/>
   <path class="fil45" d="M1511 1153l4 0 0 132 -4 0 0 -132zm4 2064l0 6 -4 3 0 -9 4 0z"/>
   <path class="fil46" d="M1515 1153l4 0 0 132 -4 0 0 -132zm4 2064l0 3 -4 3 0 -6 4 0z"/>
   <path class="fil46" d="M1519 1153l3 0 0 132 -3 0 0 -132zm3 2064l0 1 -3 2 0 -3 3 0z"/>
   <path class="fil46" d="M1522 1153l4 0 0 132 -4 0 0 -132zm0 2065l0 -1 1 0 -1 1z"/>
   <polygon class="fil47" points="1526,1153 1530,1153 1530,1285 1526,1285 "/>
   <polygon class="fil47" points="1530,1153 1534,1153 1534,1285 1530,1285 "/>
   <polygon class="fil48" points="1534,1153 1538,1153 1538,1285 1534,1285 "/>
   <polygon class="fil48" points="1538,1153 1542,1153 1542,1285 1538,1285 "/>
   <polygon class="fil49" points="1542,1153 1546,1153 1546,1285 1542,1285 "/>
   <polygon class="fil49" points="1546,1153 1550,1153 1550,1285 1546,1285 "/>
   <polygon class="fil50" points="1550,1153 1553,1153 1553,1285 1550,1285 "/>
   <polygon class="fil50" points="1553,1153 1557,1153 1557,1285 1553,1285 "/>
   <polygon class="fil50" points="1557,1153 1561,1153 1561,1285 1557,1285 "/>
   <polygon class="fil50" points="1561,1153 1565,1153 1565,1285 1561,1285 "/>
   <polygon class="fil50" points="1565,1153 1569,1153 1569,1285 1565,1285 "/>
   <polygon class="fil50" points="1569,1153 1573,1153 1573,1285 1569,1285 "/>
   <polygon class="fil51" points="1573,1153 1577,1153 1577,1285 1573,1285 "/>
   <polygon class="fil51" points="1577,1153 1581,1153 1581,1285 1577,1285 "/>
   <polygon class="fil52" points="1581,1153 1585,1153 1585,1285 1581,1285 "/>
   <polygon class="fil52" points="1585,1153 1588,1153 1588,1285 1585,1285 "/>
   <polygon class="fil53" points="1588,1153 1592,1153 1592,1285 1588,1285 "/>
   <polygon class="fil53" points="1592,1153 1596,1153 1596,1285 1592,1285 "/>
   <polygon class="fil53" points="1596,1153 1600,1153 1600,1285 1596,1285 "/>
   <polygon class="fil53" points="1600,1153 1604,1153 1604,1285 1600,1285 "/>
   <polygon class="fil53" points="1604,1153 1608,1153 1608,1285 1604,1285 "/>
   <polygon class="fil53" points="1608,1153 1612,1153 1612,1285 1608,1285 "/>
   <polygon class="fil54" points="1612,1153 1616,1153 1616,1285 1612,1285 "/>
   <polygon class="fil54" points="1616,1153 1620,1153 1620,1285 1616,1285 "/>
   <polygon class="fil54" points="1620,1153 1623,1153 1623,1285 1620,1285 "/>
   <polygon class="fil54" points="1623,1153 1627,1153 1627,1285 1623,1285 "/>
   <polygon class="fil55" points="1627,1153 1631,1153 1631,1285 1627,1285 "/>
   <polygon class="fil55" points="1631,1153 1635,1153 1635,1285 1631,1285 "/>
   <polygon class="fil55" points="1635,1153 1639,1153 1639,1285 1635,1285 "/>
   <polygon class="fil55" points="1639,1153 1643,1153 1643,1285 1639,1285 "/>
   <polygon class="fil56" points="1643,1153 1647,1153 1647,1285 1643,1285 "/>
   <polygon class="fil56" points="1647,1153 1651,1153 1651,1285 1647,1285 "/>
   <polygon class="fil56" points="1651,1153 1655,1153 1655,1285 1651,1285 "/>
   <polygon class="fil56" points="1655,1153 1658,1153 1658,1285 1655,1285 "/>
   <polygon class="fil57" points="1658,1153 1662,1153 1662,1285 1658,1285 "/>
   <polygon class="fil57" points="1662,1153 1666,1153 1666,1285 1662,1285 "/>
   <polygon class="fil57" points="1666,1153 1670,1153 1670,1285 1666,1285 "/>
   <polygon class="fil57" points="1670,1153 1674,1153 1674,1285 1670,1285 "/>
   <polygon class="fil57" points="1674,1153 1678,1153 1678,1285 1674,1285 "/>
   <polygon class="fil57" points="1678,1153 1682,1153 1682,1285 1678,1285 "/>
   <polygon class="fil57" points="1682,1153 1686,1153 1686,1285 1682,1285 "/>
   <polygon class="fil57" points="1686,1153 1689,1153 1689,1285 1686,1285 "/>
   <polygon class="fil58" points="1689,1153 1693,1153 1693,1285 1689,1285 "/>
   <polygon class="fil58" points="1693,1153 1697,1153 1697,1285 1693,1285 "/>
   <polygon class="fil59" points="1697,1153 1701,1153 1701,1285 1697,1285 "/>
   <polygon class="fil59" points="1701,1153 1705,1153 1705,1285 1701,1285 "/>
   <polygon class="fil60" points="1705,1153 1709,1153 1709,1285 1705,1285 "/>
   <polygon class="fil60" points="1709,1153 1713,1153 1713,1285 1709,1285 "/>
   <polygon class="fil60" points="1713,1153 1717,1153 1717,1285 1713,1285 "/>
   <polygon class="fil60" points="1717,1153 1721,1153 1721,1285 1717,1285 "/>
   <polygon class="fil61" points="1721,1153 1724,1153 1724,1285 1721,1285 "/>
   <polygon class="fil61" points="1724,1153 1728,1153 1728,1285 1724,1285 "/>
   <polygon class="fil61" points="1728,1153 1732,1153 1732,1285 1728,1285 "/>
   <polygon class="fil61" points="1732,1153 1736,1153 1736,1285 1732,1285 "/>
   <polygon class="fil62" points="1736,1153 1740,1153 1740,1285 1736,1285 "/>
   <polygon class="fil62" points="1740,1153 1744,1153 1744,1285 1740,1285 "/>
   <polygon class="fil62" points="1744,1153 1748,1153 1748,1285 1744,1285 "/>
   <polygon class="fil62" points="1748,1153 1752,1153 1752,1285 1748,1285 "/>
   <polygon class="fil63" points="1752,1153 1756,1153 1756,1285 1752,1285 "/>
   <polygon class="fil63" points="1756,1153 1759,1153 1759,1285 1756,1285 "/>
   <polygon class="fil63" points="1759,1153 1763,1153 1763,1285 1759,1285 "/>
   <polygon class="fil63" points="1763,1153 1767,1153 1767,1285 1763,1285 "/>
   <polygon class="fil64" points="1767,1153 1771,1153 1771,1285 1767,1285 "/>
   <polygon class="fil64" points="1771,1153 1775,1153 1775,1285 1771,1285 "/>
   <polygon class="fil64" points="1775,1153 1779,1153 1779,1285 1775,1285 "/>
   <polygon class="fil64" points="1779,1153 1783,1153 1783,1285 1779,1285 "/>
   <polygon class="fil64" points="1783,1153 1787,1153 1787,1285 1783,1285 "/>
   <polygon class="fil65" points="1787,1153 1791,1153 1791,1285 1787,1285 "/>
   <polygon class="fil65" points="1791,1153 1794,1153 1794,1285 1791,1285 "/>
   <polygon class="fil65" points="1794,1153 1798,1153 1798,1285 1794,1285 "/>
   <polygon class="fil65" points="1798,1153 1802,1153 1802,1285 1798,1285 "/>
   <polygon class="fil65" points="1802,1153 1806,1153 1806,1285 1802,1285 "/>
   <polygon class="fil65" points="1806,1153 1810,1153 1810,1285 1806,1285 "/>
   <polygon class="fil65" points="1810,1153 1814,1153 1814,1285 1810,1285 "/>
   <polygon class="fil65" points="1814,1153 1818,1153 1818,1285 1814,1285 "/>
   <polygon class="fil66" points="1818,1153 1822,1153 1822,1285 1818,1285 "/>
   <polygon class="fil66" points="1822,1153 1825,1153 1825,1285 1822,1285 "/>
   <polygon class="fil67" points="1825,1153 1829,1153 1829,1285 1825,1285 "/>
   <polygon class="fil67" points="1829,1153 1833,1153 1833,1285 1829,1285 "/>
   <polygon class="fil68" points="1833,1153 1837,1153 1837,1285 1833,1285 "/>
   <polygon class="fil68" points="1837,1153 1841,1153 1841,1285 1837,1285 "/>
   <polygon class="fil69" points="1841,1153 1845,1153 1845,1285 1841,1285 "/>
   <polygon class="fil69" points="1845,1153 1849,1153 1849,1285 1845,1285 "/>
   <polygon class="fil70" points="1849,1153 1853,1153 1853,1285 1849,1285 "/>
   <polygon class="fil70" points="1853,1153 1857,1153 1857,1285 1853,1285 "/>
   <polygon class="fil70" points="1857,1153 1860,1153 1860,1285 1857,1285 "/>
   <polygon class="fil70" points="1860,1153 1864,1153 1864,1285 1860,1285 "/>
   <polygon class="fil71" points="1864,1153 1868,1153 1868,1285 1864,1285 "/>
   <polygon class="fil71" points="1868,1153 1872,1153 1872,1285 1868,1285 "/>
   <polygon class="fil71" points="1872,1153 1876,1153 1876,1285 1872,1285 "/>
   <polygon class="fil71" points="1876,1153 1880,1153 1880,1285 1876,1285 "/>
   <polygon class="fil72" points="1880,1153 1884,1153 1884,1285 1880,1285 "/>
   <polygon class="fil72" points="1884,1153 1888,1153 1888,1285 1884,1285 "/>
   <polygon class="fil72" points="1888,1153 1892,1153 1892,1285 1888,1285 "/>
   <polygon class="fil72" points="1892,1153 1895,1153 1895,1285 1892,1285 "/>
   <polygon class="fil73" points="1895,1153 1899,1153 1899,1285 1895,1285 "/>
   <polygon class="fil73" points="1899,1153 1903,1153 1903,1285 1899,1285 "/>
   <polygon class="fil73" points="1903,1153 1907,1153 1907,1285 1903,1285 "/>
   <polygon class="fil73" points="1907,1153 1911,1153 1911,1285 1907,1285 "/>
   <polygon class="fil74" points="1911,1153 1915,1153 1915,1285 1911,1285 "/>
   <polygon class="fil74" points="1915,1153 1919,1153 1919,1285 1915,1285 "/>
   <polygon class="fil74" points="1919,1153 1923,1153 1923,1285 1919,1285 "/>
   <polygon class="fil74" points="1923,1153 1926,1153 1926,1285 1923,1285 "/>
   <polygon class="fil74" points="1926,1153 1930,1153 1930,1285 1926,1285 "/>
   <polygon class="fil74" points="1930,1153 1934,1153 1934,1285 1930,1285 "/>
   <polygon class="fil74" points="1934,1153 1938,1153 1938,1285 1934,1285 "/>
   <polygon class="fil74" points="1938,1153 1942,1153 1942,1285 1938,1285 "/>
   <polygon class="fil75" points="1942,1153 1946,1153 1946,1285 1942,1285 "/>
   <polygon class="fil75" points="1946,1153 1950,1153 1950,1285 1946,1285 "/>
   <polygon class="fil75" points="1950,1153 1954,1153 1954,1285 1950,1285 "/>
   <polygon class="fil75" points="1954,1153 1958,1153 1958,1285 1954,1285 "/>
   <polygon class="fil75" points="1958,1153 1961,1153 1961,1285 1961,1285 1958,1285 "/>
   <path class="fil75" d="M1961 1153l2 0c0,0 1,0 2,0l0 132c-1,0 -2,0 -4,0l0 -132z"/>
   <path class="fil75" d="M1969 1154l0 132c-1,0 -2,0 -4,-1l0 -132c2,0 3,0 4,1z"/>
   <path class="fil75" d="M1973 1154l0 133c-1,0 -2,-1 -4,-1l0 -132c2,0 3,0 4,0z"/>
   <path class="fil76" d="M1977 1155l0 133c-1,0 -3,-1 -4,-1l0 -133c1,1 3,1 4,1z"/>
   <path class="fil76" d="M1981 1157l0 132c-1,0 -3,-1 -4,-1l0 -133c1,1 3,1 4,2z"/>
   <path class="fil76" d="M1985 1159l0 132c-1,0 -3,-1 -4,-2l0 -132c1,0 3,1 4,2z"/>
   <path class="fil76" d="M1989 1161l0 133c-2,-1 -3,-2 -4,-3l0 -132c1,0 2,1 4,2z"/>
   <path class="fil77" d="M1993 1163l0 133c-2,-1 -3,-2 -4,-2l0 -133c1,0 2,1 4,2z"/>
   <path class="fil77" d="M1996 1166l0 133c-1,-1 -2,-2 -3,-3l0 -133c1,1 2,2 3,3z"/>
   <path class="fil77" d="M2000 1170l0 133c-1,-2 -2,-3 -4,-4l0 -133c2,1 3,3 4,4z"/>
   <path class="fil77" d="M2004 1174l0 133c-1,-2 -2,-3 -4,-4l0 -133c2,1 3,3 4,4z"/>
   <path class="fil77" d="M2008 1180l0 132c-1,-2 -2,-4 -4,-5l0 -133c2,2 3,4 4,6z"/>
   <path class="fil77" d="M2012 1186l0 131c-1,-2 -3,-4 -4,-5l0 -132c2,2 3,4 4,6z"/>
   <path class="fil77" d="M2016 1196l0 129c-1,-3 -3,-5 -4,-8l0 -131c1,3 3,7 4,10z"/>
   <path class="fil77" d="M2020 1221l0 114 0 0c-1,-4 -3,-7 -4,-10l0 -129c2,8 4,16 4,25z"/>
   <polygon class="fil77" points="2020,1221 2020,1335 2020,1335 2020,1221 "/>
   <polygon class="fil78" points="1040,3202 1040,3202 1040,3202 1041,3203 1041,3203 "/>
   <path class="fil78" d="M1044 3205l0 3c-1,-2 -2,-3 -3,-5l0 0c1,1 2,2 3,2z"/>
   <path class="fil78" d="M1048 3208l0 4c-1,-2 -2,-3 -4,-4l0 -3c2,1 3,2 4,3z"/>
   <path class="fil78" d="M1052 3210l0 5c-1,-1 -2,-2 -4,-3l0 -4c2,1 3,1 4,2z"/>
   <path class="fil78" d="M1056 3212l0 6c-1,-1 -2,-2 -4,-3l0 -5c2,1 3,1 4,2z"/>
   <path class="fil78" d="M1060 3213l0 7c-1,-1 -3,-2 -4,-2l0 -6c1,0 3,1 4,1z"/>
   <path class="fil79" d="M1064 3214l0 8c-1,-1 -3,-1 -4,-2l0 -7c1,1 3,1 4,1z"/>
   <path class="fil79" d="M1068 3215l0 8c-2,0 -3,-1 -4,-1l0 -8c1,1 2,1 4,1z"/>
   <path class="fil80" d="M1072 3216l0 8c-2,0 -3,0 -4,-1l0 -8c1,1 2,1 4,1z"/>
   <path class="fil80" d="M1076 3217l0 8c-2,0 -3,0 -4,-1l0 -8c1,0 2,1 4,1z"/>
   <path class="fil81" d="M1079 3217l0 9c-1,0 -2,-1 -3,-1l0 -8c1,0 2,0 3,0z"/>
   <path class="fil81" d="M1083 3217l0 9c-1,0 -2,0 -4,0l0 -9c2,0 3,0 4,0z"/>
   <polygon class="fil82" points="1087,3217 1087,3226 1084,3226 1083,3226 1083,3217 1084,3217 "/>
   <polygon class="fil82" points="1091,3217 1091,3226 1087,3226 1087,3217 "/>
   <polygon class="fil83" points="1095,3217 1095,3226 1091,3226 1091,3217 "/>
   <polygon class="fil83" points="1099,3217 1099,3226 1095,3226 1095,3217 "/>
   <polygon class="fil83" points="1103,3217 1103,3226 1099,3226 1099,3217 "/>
   <polygon class="fil83" points="1107,3217 1107,3226 1103,3226 1103,3217 "/>
   <polygon class="fil84" points="1111,3217 1111,3226 1107,3226 1107,3217 "/>
   <polygon class="fil84" points="1114,3217 1114,3226 1111,3226 1111,3217 "/>
   <polygon class="fil85" points="1118,3217 1118,3226 1114,3226 1114,3217 "/>
   <polygon class="fil85" points="1122,3217 1122,3226 1118,3226 1118,3217 "/>
   <polygon class="fil86" points="1126,3217 1126,3226 1122,3226 1122,3217 "/>
   <polygon class="fil86" points="1130,3217 1130,3226 1126,3226 1126,3217 "/>
   <polygon class="fil87" points="1134,3217 1134,3226 1130,3226 1130,3217 "/>
   <polygon class="fil87" points="1138,3217 1138,3226 1134,3226 1134,3217 "/>
   <polygon class="fil87" points="1142,3217 1142,3226 1138,3226 1138,3217 "/>
   <polygon class="fil87" points="1145,3217 1145,3226 1142,3226 1142,3217 "/>
   <polygon class="fil88" points="1149,3217 1149,3226 1145,3226 1145,3217 "/>
   <polygon class="fil88" points="1153,3217 1153,3226 1149,3226 1149,3217 "/>
   <polygon class="fil89" points="1157,3217 1157,3226 1153,3226 1153,3217 "/>
   <polygon class="fil89" points="1161,3217 1161,3226 1157,3226 1157,3217 "/>
   <polygon class="fil89" points="1165,3217 1165,3226 1161,3226 1161,3217 "/>
   <polygon class="fil89" points="1169,3217 1169,3226 1165,3226 1165,3217 "/>
   <polygon class="fil90" points="1173,3217 1173,3226 1169,3226 1169,3217 "/>
   <polygon class="fil90" points="1177,3217 1177,3226 1173,3226 1173,3217 "/>
   <polygon class="fil91" points="1180,3217 1180,3226 1177,3226 1177,3217 "/>
   <polygon class="fil91" points="1184,3217 1184,3226 1180,3226 1180,3217 "/>
   <polygon class="fil91" points="1188,3217 1188,3226 1184,3226 1184,3217 "/>
   <polygon class="fil91" points="1192,3217 1192,3226 1188,3226 1188,3217 "/>
   <polygon class="fil92" points="1196,3217 1196,3226 1192,3226 1192,3217 "/>
   <polygon class="fil92" points="1200,3217 1200,3226 1196,3226 1196,3217 "/>
   <polygon class="fil93" points="1204,3217 1204,3226 1200,3226 1200,3217 "/>
   <polygon class="fil93" points="1208,3217 1208,3226 1204,3226 1204,3217 "/>
   <polygon class="fil93" points="1212,3217 1212,3226 1208,3226 1208,3217 "/>
   <polygon class="fil93" points="1215,3217 1215,3226 1212,3226 1212,3217 "/>
   <polygon class="fil94" points="1219,3217 1219,3226 1215,3226 1215,3217 "/>
   <polygon class="fil94" points="1223,3217 1223,3226 1219,3226 1219,3217 "/>
   <polygon class="fil94" points="1227,3217 1227,3226 1223,3226 1223,3217 "/>
   <polygon class="fil94" points="1231,3217 1231,3226 1227,3226 1227,3217 "/>
   <polygon class="fil95" points="1235,3217 1235,3226 1231,3226 1231,3217 "/>
   <polygon class="fil95" points="1239,3217 1239,3226 1235,3226 1235,3217 "/>
   <polygon class="fil95" points="1243,3217 1243,3226 1239,3226 1239,3217 "/>
   <polygon class="fil95" points="1247,3217 1247,3226 1243,3226 1243,3217 "/>
   <polygon class="fil96" points="1250,3217 1250,3226 1247,3226 1247,3217 "/>
   <polygon class="fil96" points="1254,3217 1254,3226 1250,3226 1250,3217 "/>
   <polygon class="fil96" points="1258,3217 1258,3226 1254,3226 1254,3217 "/>
   <polygon class="fil96" points="1262,3217 1262,3226 1258,3226 1258,3217 "/>
   <polygon class="fil96" points="1266,3217 1266,3226 1262,3226 1262,3217 "/>
   <polygon class="fil96" points="1270,3217 1270,3226 1266,3226 1266,3217 "/>
   <polygon class="fil96" points="1274,3217 1274,3226 1270,3226 1270,3217 "/>
   <polygon class="fil96" points="1278,3217 1278,3226 1274,3226 1274,3217 "/>
   <polygon class="fil96" points="1281,3217 1281,3226 1278,3226 1278,3217 "/>
   <polygon class="fil97" points="1285,3217 1285,3226 1281,3226 1281,3217 "/>
   <polygon class="fil97" points="1289,3217 1289,3226 1285,3226 1285,3217 "/>
   <polygon class="fil97" points="1293,3217 1293,3226 1289,3226 1289,3217 "/>
   <polygon class="fil97" points="1297,3217 1297,3226 1293,3226 1293,3217 "/>
   <polygon class="fil97" points="1301,3217 1301,3226 1297,3226 1297,3217 "/>
   <polygon class="fil97" points="1305,3217 1305,3226 1301,3226 1301,3217 "/>
   <polygon class="fil98" points="1309,3217 1309,3226 1305,3226 1305,3217 "/>
   <polygon class="fil98" points="1313,3217 1313,3226 1309,3226 1309,3217 "/>
   <polygon class="fil99" points="1316,3217 1316,3226 1313,3226 1313,3217 "/>
   <polygon class="fil99" points="1320,3217 1320,3226 1316,3226 1316,3217 "/>
   <polygon class="fil99" points="1324,3217 1324,3226 1320,3226 1320,3217 "/>
   <polygon class="fil99" points="1328,3217 1328,3226 1324,3226 1324,3217 "/>
   <polygon class="fil100" points="1332,3217 1332,3226 1328,3226 1328,3217 "/>
   <polygon class="fil101" points="1336,3217 1336,3226 1332,3226 1332,3217 "/>
   <polygon class="fil101" points="1340,3217 1340,3226 1336,3226 1336,3217 "/>
   <polygon class="fil101" points="1344,3217 1344,3226 1340,3226 1340,3217 "/>
   <polygon class="fil102" points="1348,3217 1348,3226 1344,3226 1344,3217 "/>
   <polygon class="fil102" points="1351,3217 1351,3226 1348,3226 1348,3217 "/>
   <polygon class="fil102" points="1355,3217 1355,3226 1351,3226 1351,3217 "/>
   <polygon class="fil102" points="1359,3217 1359,3226 1355,3226 1355,3217 "/>
   <polygon class="fil102" points="1363,3217 1363,3226 1359,3226 1359,3217 "/>
   <polygon class="fil102" points="1367,3217 1367,3226 1363,3226 1363,3217 "/>
   <polygon class="fil102" points="1371,3217 1371,3226 1367,3226 1367,3217 "/>
   <polygon class="fil102" points="1375,3217 1375,3226 1371,3226 1371,3217 "/>
   <polygon class="fil103" points="1379,3217 1379,3226 1375,3226 1375,3217 "/>
   <polygon class="fil103" points="1383,3217 1383,3226 1379,3226 1379,3217 "/>
   <polygon class="fil103" points="1386,3217 1386,3226 1383,3226 1383,3217 "/>
   <polygon class="fil103" points="1390,3217 1390,3226 1386,3226 1386,3217 "/>
   <polygon class="fil104" points="1394,3217 1394,3226 1390,3226 1390,3217 "/>
   <polygon class="fil104" points="1398,3217 1398,3226 1394,3226 1394,3217 "/>
   <polygon class="fil105" points="1402,3217 1402,3226 1398,3226 1398,3217 "/>
   <polygon class="fil105" points="1406,3217 1406,3226 1402,3226 1402,3217 "/>
   <polygon class="fil105" points="1410,3217 1410,3226 1406,3226 1406,3217 "/>
   <polygon class="fil105" points="1414,3217 1414,3226 1410,3226 1410,3217 "/>
   <polygon class="fil106" points="1417,3217 1417,3226 1414,3226 1414,3217 "/>
   <polygon class="fil106" points="1421,3217 1421,3226 1417,3226 1417,3217 "/>
   <polygon class="fil107" points="1425,3217 1425,3226 1421,3226 1421,3217 "/>
   <polygon class="fil107" points="1429,3217 1429,3226 1425,3226 1425,3217 "/>
   <polygon class="fil108" points="1433,3217 1433,3226 1429,3226 1429,3217 "/>
   <polygon class="fil108" points="1437,3217 1437,3226 1433,3226 1433,3217 "/>
   <polygon class="fil109" points="1441,3217 1441,3226 1437,3226 1437,3217 "/>
   <polygon class="fil109" points="1445,3217 1445,3226 1441,3226 1441,3217 "/>
   <polygon class="fil109" points="1449,3217 1449,3226 1445,3226 1445,3217 "/>
   <polygon class="fil109" points="1452,3217 1452,3226 1449,3226 1449,3217 "/>
   <polygon class="fil109" points="1456,3217 1456,3226 1452,3226 1452,3217 "/>
   <polygon class="fil109" points="1460,3217 1460,3226 1456,3226 1456,3217 "/>
   <polygon class="fil109" points="1464,3217 1464,3226 1460,3226 1460,3217 "/>
   <polygon class="fil109" points="1468,3217 1468,3226 1464,3226 1464,3217 "/>
   <polygon class="fil110" points="1472,3217 1472,3226 1468,3226 1468,3217 "/>
   <polygon class="fil110" points="1476,3217 1476,3226 1472,3226 1472,3217 "/>
   <polygon class="fil110" points="1480,3217 1480,3226 1476,3226 1476,3217 "/>
   <polygon class="fil110" points="1484,3217 1484,3226 1480,3226 1480,3217 "/>
   <polygon class="fil111" points="1485,3226 1484,3226 1484,3217 1485,3217 "/>
   <path class="fil78" d="M1029 1321l0 1859c-3,-7 -4,-16 -4,-25l0 -1826c1,-2 2,-5 4,-8z"/>
   <path class="fil78" d="M1033 1315l0 1875c-2,-3 -3,-6 -4,-10l0 -1859c1,-2 2,-4 4,-6z"/>
   <path class="fil78" d="M1037 1310l0 1887c-2,-2 -3,-4 -4,-7l0 -1875c1,-2 2,-3 4,-5z"/>
   <path class="fil78" d="M1041 1306l0 1897 -1 -1c0,0 0,0 0,0 -1,-2 -2,-3 -3,-5l0 -1887c1,-1 2,-3 4,-4z"/>
   <path class="fil78" d="M1044 1302l0 1903c-1,0 -2,-1 -3,-2l0 -1897c1,-2 2,-3 3,-4z"/>
   <path class="fil78" d="M1048 1299l0 1909c-1,-1 -2,-2 -4,-3l0 -1903c2,-1 3,-2 4,-3z"/>
   <path class="fil78" d="M1052 1296l0 1914c-1,-1 -2,-1 -4,-2l0 -1909c2,-1 3,-2 4,-3z"/>
   <path class="fil78" d="M1056 1293l0 1919c-1,-1 -2,-1 -4,-2l0 -1914c2,-1 3,-2 4,-3z"/>
   <path class="fil78" d="M1060 1291l0 1922c-1,0 -3,-1 -4,-1l0 -1919c1,0 3,-1 4,-2z"/>
   <path class="fil79" d="M1064 1289l0 1925c-1,0 -3,0 -4,-1l0 -1922c1,0 3,-1 4,-2z"/>
   <path class="fil79" d="M1068 1288l0 1927c-2,0 -3,0 -4,-1l0 -1925c1,0 2,-1 4,-1z"/>
   <path class="fil80" d="M1072 1287l0 1929c-2,0 -3,0 -4,-1l0 -1927c1,0 2,-1 4,-1z"/>
   <path class="fil80" d="M1076 1286l0 1931c-2,0 -3,-1 -4,-1l0 -1929c1,0 2,-1 4,-1z"/>
   <path class="fil81" d="M1079 1286l0 1931c-1,0 -2,0 -3,0l0 -1931c1,0 2,0 3,0z"/>
   <path class="fil81" d="M1083 1285l0 1932c-1,0 -2,0 -4,0l0 -1931c2,-1 3,-1 4,-1l0 0z"/>
   <polygon class="fil82" points="1084,1285 1087,1285 1087,3217 1084,3217 1083,3217 1083,1285 "/>
   <polygon class="fil82" points="1087,1285 1091,1285 1091,3217 1087,3217 "/>
   <polygon class="fil83" points="1091,1285 1095,1285 1095,3217 1091,3217 "/>
   <polygon class="fil83" points="1095,1285 1099,1285 1099,3217 1095,3217 "/>
   <polygon class="fil83" points="1099,1285 1103,1285 1103,3217 1099,3217 "/>
   <polygon class="fil83" points="1103,1285 1107,1285 1107,3217 1103,3217 "/>
   <polygon class="fil84" points="1107,1285 1111,1285 1111,3217 1107,3217 "/>
   <polygon class="fil84" points="1111,1285 1114,1285 1114,3217 1111,3217 "/>
   <polygon class="fil85" points="1114,1285 1118,1285 1118,3217 1114,3217 "/>
   <polygon class="fil85" points="1118,1285 1122,1285 1122,3217 1118,3217 "/>
   <polygon class="fil86" points="1122,1285 1126,1285 1126,3217 1122,3217 "/>
   <polygon class="fil86" points="1126,1285 1130,1285 1130,3217 1126,3217 "/>
   <polygon class="fil87" points="1130,1285 1134,1285 1134,3217 1130,3217 "/>
   <polygon class="fil87" points="1134,1285 1138,1285 1138,3217 1134,3217 "/>
   <polygon class="fil87" points="1138,1285 1142,1285 1142,3217 1138,3217 "/>
   <polygon class="fil87" points="1142,1285 1145,1285 1145,3217 1142,3217 "/>
   <polygon class="fil88" points="1145,1285 1149,1285 1149,3217 1145,3217 "/>
   <polygon class="fil88" points="1149,1285 1153,1285 1153,3217 1149,3217 "/>
   <polygon class="fil89" points="1153,1285 1157,1285 1157,3217 1153,3217 "/>
   <polygon class="fil89" points="1157,1285 1161,1285 1161,3217 1157,3217 "/>
   <polygon class="fil89" points="1161,1285 1165,1285 1165,3217 1161,3217 "/>
   <polygon class="fil89" points="1165,1285 1169,1285 1169,3217 1165,3217 "/>
   <polygon class="fil90" points="1169,1285 1173,1285 1173,3217 1169,3217 "/>
   <polygon class="fil90" points="1173,1285 1177,1285 1177,3217 1173,3217 "/>
   <polygon class="fil91" points="1177,1285 1180,1285 1180,3217 1177,3217 "/>
   <polygon class="fil91" points="1180,1285 1184,1285 1184,3217 1180,3217 "/>
   <polygon class="fil91" points="1184,1285 1188,1285 1188,3217 1184,3217 "/>
   <polygon class="fil91" points="1188,1285 1192,1285 1192,3217 1188,3217 "/>
   <polygon class="fil92" points="1192,1285 1196,1285 1196,3217 1192,3217 "/>
   <polygon class="fil92" points="1196,1285 1200,1285 1200,3217 1196,3217 "/>
   <polygon class="fil93" points="1200,1285 1204,1285 1204,3217 1200,3217 "/>
   <polygon class="fil93" points="1204,1285 1208,1285 1208,3217 1204,3217 "/>
   <polygon class="fil93" points="1208,1285 1212,1285 1212,3217 1208,3217 "/>
   <polygon class="fil93" points="1212,1285 1215,1285 1215,3217 1212,3217 "/>
   <polygon class="fil94" points="1215,1285 1219,1285 1219,3217 1215,3217 "/>
   <polygon class="fil94" points="1219,1285 1223,1285 1223,3217 1219,3217 "/>
   <polygon class="fil94" points="1223,1285 1227,1285 1227,3217 1223,3217 "/>
   <polygon class="fil94" points="1227,1285 1231,1285 1231,3217 1227,3217 "/>
   <polygon class="fil95" points="1231,1285 1235,1285 1235,3217 1231,3217 "/>
   <polygon class="fil95" points="1235,1285 1239,1285 1239,3217 1235,3217 "/>
   <polygon class="fil95" points="1239,1285 1243,1285 1243,3217 1239,3217 "/>
   <polygon class="fil95" points="1243,1285 1247,1285 1247,3217 1243,3217 "/>
   <polygon class="fil96" points="1247,1285 1250,1285 1250,3217 1247,3217 "/>
   <polygon class="fil96" points="1250,1285 1254,1285 1254,3217 1250,3217 "/>
   <polygon class="fil96" points="1254,1285 1258,1285 1258,3217 1254,3217 "/>
   <polygon class="fil96" points="1258,1285 1262,1285 1262,3217 1258,3217 "/>
   <polygon class="fil96" points="1262,1285 1266,1285 1266,3217 1262,3217 "/>
   <polygon class="fil96" points="1266,1285 1270,1285 1270,3217 1266,3217 "/>
   <polygon class="fil96" points="1270,1285 1274,1285 1274,3217 1270,3217 "/>
   <polygon class="fil96" points="1274,1285 1278,1285 1278,3217 1274,3217 "/>
   <polygon class="fil96" points="1278,1285 1281,1285 1281,3217 1278,3217 "/>
   <polygon class="fil97" points="1281,1285 1285,1285 1285,3217 1281,3217 "/>
   <polygon class="fil97" points="1285,1285 1289,1285 1289,3217 1285,3217 "/>
   <polygon class="fil97" points="1289,1285 1293,1285 1293,3217 1289,3217 "/>
   <polygon class="fil97" points="1293,1285 1297,1285 1297,3217 1293,3217 "/>
   <polygon class="fil97" points="1297,1285 1301,1285 1301,3217 1297,3217 "/>
   <polygon class="fil97" points="1301,1285 1305,1285 1305,3217 1301,3217 "/>
   <polygon class="fil98" points="1305,1285 1309,1285 1309,3217 1305,3217 "/>
   <polygon class="fil98" points="1309,1285 1313,1285 1313,3217 1309,3217 "/>
   <polygon class="fil99" points="1313,1285 1316,1285 1316,3217 1313,3217 "/>
   <polygon class="fil99" points="1316,1285 1320,1285 1320,3217 1316,3217 "/>
   <polygon class="fil99" points="1320,1285 1324,1285 1324,3217 1320,3217 "/>
   <polygon class="fil99" points="1324,1285 1328,1285 1328,3217 1324,3217 "/>
   <polygon class="fil100" points="1328,1285 1332,1285 1332,3217 1328,3217 "/>
   <polygon class="fil101" points="1332,1285 1336,1285 1336,3217 1332,3217 "/>
   <polygon class="fil101" points="1336,1285 1340,1285 1340,3217 1336,3217 "/>
   <polygon class="fil101" points="1340,1285 1344,1285 1344,3217 1340,3217 "/>
   <polygon class="fil102" points="1344,1285 1348,1285 1348,3217 1344,3217 "/>
   <polygon class="fil102" points="1348,1285 1351,1285 1351,3217 1348,3217 "/>
   <polygon class="fil102" points="1351,1285 1355,1285 1355,3217 1351,3217 "/>
   <polygon class="fil102" points="1355,1285 1359,1285 1359,3217 1355,3217 "/>
   <polygon class="fil102" points="1359,1285 1363,1285 1363,3217 1359,3217 "/>
   <polygon class="fil102" points="1363,1285 1367,1285 1367,3217 1363,3217 "/>
   <polygon class="fil102" points="1367,1285 1371,1285 1371,3217 1367,3217 "/>
   <polygon class="fil102" points="1371,1285 1375,1285 1375,3217 1371,3217 "/>
   <polygon class="fil103" points="1375,1285 1379,1285 1379,3217 1375,3217 "/>
   <polygon class="fil103" points="1379,1285 1383,1285 1383,3217 1379,3217 "/>
   <polygon class="fil103" points="1383,1285 1386,1285 1386,3217 1383,3217 "/>
   <polygon class="fil103" points="1386,1285 1390,1285 1390,3217 1386,3217 "/>
   <polygon class="fil104" points="1390,1285 1394,1285 1394,3217 1390,3217 "/>
   <polygon class="fil104" points="1394,1285 1398,1285 1398,3217 1394,3217 "/>
   <polygon class="fil105" points="1398,1285 1402,1285 1402,3217 1398,3217 "/>
   <polygon class="fil105" points="1402,1285 1406,1285 1406,3217 1402,3217 "/>
   <polygon class="fil105" points="1406,1285 1410,1285 1410,3217 1406,3217 "/>
   <polygon class="fil105" points="1410,1285 1414,1285 1414,3217 1410,3217 "/>
   <polygon class="fil106" points="1414,1285 1417,1285 1417,3217 1414,3217 "/>
   <polygon class="fil106" points="1417,1285 1421,1285 1421,3217 1417,3217 "/>
   <polygon class="fil107" points="1421,1285 1425,1285 1425,3217 1421,3217 "/>
   <polygon class="fil107" points="1425,1285 1429,1285 1429,3217 1425,3217 "/>
   <polygon class="fil108" points="1429,1285 1433,1285 1433,3217 1429,3217 "/>
   <polygon class="fil108" points="1433,1285 1437,1285 1437,3217 1433,3217 "/>
   <polygon class="fil109" points="1437,1285 1441,1285 1441,3217 1437,3217 "/>
   <polygon class="fil109" points="1441,1285 1445,1285 1445,3217 1441,3217 "/>
   <polygon class="fil109" points="1445,1285 1449,1285 1449,3217 1445,3217 "/>
   <polygon class="fil109" points="1449,1285 1452,1285 1452,3217 1449,3217 "/>
   <polygon class="fil109" points="1452,1285 1456,1285 1456,3217 1452,3217 "/>
   <polygon class="fil109" points="1456,1285 1460,1285 1460,3217 1456,3217 "/>
   <polygon class="fil109" points="1460,1285 1464,1285 1464,3217 1460,3217 "/>
   <polygon class="fil109" points="1464,1285 1468,1285 1468,3217 1464,3217 "/>
   <polygon class="fil110" points="1468,1285 1472,1285 1472,3217 1468,3217 "/>
   <polygon class="fil110" points="1472,1285 1476,1285 1476,3217 1472,3217 "/>
   <polygon class="fil110" points="1476,1285 1480,1285 1480,3217 1476,3217 "/>
   <polygon class="fil110" points="1480,1285 1484,1285 1484,3217 1480,3217 "/>
   <polygon class="fil111" points="1484,1285 1487,1285 1487,3217 1485,3217 1484,3217 "/>
   <polygon class="fil111" points="1487,1285 1491,1285 1491,3217 1487,3217 "/>
   <polygon class="fil112" points="1491,1285 1495,1285 1495,3217 1491,3217 "/>
   <polygon class="fil112" points="1495,1285 1499,1285 1499,3217 1495,3217 "/>
   <polygon class="fil113" points="1499,1285 1503,1285 1503,3217 1499,3217 "/>
   <polygon class="fil113" points="1503,1285 1507,1285 1507,3217 1503,3217 "/>
   <polygon class="fil113" points="1507,1285 1511,1285 1511,3217 1507,3217 "/>
   <polygon class="fil113" points="1511,1285 1515,1285 1515,3217 1511,3217 "/>
   <polygon class="fil113" points="1515,1285 1519,1285 1519,3217 1515,3217 "/>
   <polygon class="fil113" points="1519,1285 1522,1285 1522,3217 1519,3217 "/>
   <polygon class="fil113" points="1522,1285 1526,1285 1526,3215 1523,3217 1522,3217 "/>
   <polygon class="fil113" points="1526,1285 1530,1285 1530,3212 1526,3215 "/>
   <polygon class="fil113" points="1530,1285 1534,1285 1534,3210 1530,3212 "/>
   <polygon class="fil114" points="1534,1285 1538,1285 1538,3207 1534,3210 "/>
   <polygon class="fil114" points="1538,1285 1542,1285 1542,3204 1538,3207 "/>
   <polygon class="fil115" points="1542,1285 1546,1285 1546,3201 1542,3204 "/>
   <polygon class="fil115" points="1546,1285 1550,1285 1550,3198 1546,3201 "/>
   <polygon class="fil116" points="1550,1285 1553,1285 1553,3196 1550,3198 "/>
   <polygon class="fil116" points="1553,1285 1557,1285 1557,3193 1553,3196 "/>
   <polygon class="fil117" points="1557,1285 1561,1285 1561,3190 1557,3193 "/>
   <polygon class="fil117" points="1561,1285 1565,1285 1565,3187 1561,3190 "/>
   <polygon class="fil118" points="1565,1285 1569,1285 1569,3184 1565,3187 "/>
   <polygon class="fil118" points="1569,1285 1573,1285 1573,3181 1569,3184 "/>
   <polygon class="fil119" points="1573,1285 1577,1285 1577,3178 1573,3181 "/>
   <polygon class="fil119" points="1577,1285 1581,1285 1581,3175 1577,3178 "/>
   <polygon class="fil119" points="1581,1285 1585,1285 1585,3172 1581,3175 "/>
   <polygon class="fil119" points="1585,1285 1588,1285 1588,3169 1585,3172 "/>
   <polygon class="fil119" points="1588,1285 1592,1285 1592,3166 1588,3169 "/>
   <polygon class="fil119" points="1592,1285 1596,1285 1596,3163 1592,3166 "/>
   <polygon class="fil120" points="1596,1285 1600,1285 1600,3160 1596,3163 "/>
   <polygon class="fil120" points="1600,1285 1604,1285 1604,3157 1600,3160 "/>
   <polygon class="fil121" points="1604,1285 1608,1285 1608,3154 1604,3157 "/>
   <polygon class="fil121" points="1608,1285 1612,1285 1612,3151 1608,3154 "/>
   <polygon class="fil121" points="1612,1285 1616,1285 1616,3148 1612,3151 "/>
   <polygon class="fil121" points="1616,1285 1620,1285 1620,3144 1616,3148 "/>
   <polygon class="fil121" points="1620,1285 1623,1285 1623,3141 1620,3144 "/>
   <polygon class="fil121" points="1623,1285 1627,1285 1627,3138 1623,3141 "/>
   <polygon class="fil122" points="1627,1285 1631,1285 1631,3135 1627,3138 "/>
   <polygon class="fil122" points="1631,1285 1635,1285 1635,3131 1631,3135 "/>
   <polygon class="fil123" points="1635,1285 1639,1285 1639,3128 1635,3131 "/>
   <polygon class="fil123" points="1639,1285 1643,1285 1643,3125 1639,3128 "/>
   <polygon class="fil124" points="1643,1285 1647,1285 1647,3121 1643,3125 "/>
   <polygon class="fil124" points="1647,1285 1651,1285 1651,3118 1647,3121 "/>
   <polygon class="fil124" points="1651,1285 1655,1285 1655,3114 1651,3118 "/>
   <polygon class="fil124" points="1655,1285 1658,1285 1658,3111 1655,3114 "/>
   <polygon class="fil125" points="1658,1285 1662,1285 1662,3108 1658,3111 "/>
   <polygon class="fil125" points="1662,1285 1666,1285 1666,3104 1662,3108 "/>
   <polygon class="fil125" points="1666,1285 1670,1285 1670,3100 1666,3104 "/>
   <polygon class="fil125" points="1670,1285 1674,1285 1674,3097 1670,3100 "/>
   <polygon class="fil126" points="1674,1285 1678,1285 1678,3093 1674,3097 "/>
   <polygon class="fil126" points="1678,1285 1682,1285 1682,3090 1678,3093 "/>
   <polygon class="fil126" points="1682,1285 1686,1285 1686,3086 1682,3090 "/>
   <polygon class="fil126" points="1686,1285 1689,1285 1689,3082 1686,3086 "/>
   <polygon class="fil126" points="1689,1285 1693,1285 1693,3079 1689,3082 "/>
   <polygon class="fil126" points="1693,1285 1697,1285 1697,3075 1693,3079 "/>
   <polygon class="fil127" points="1697,1285 1701,1285 1701,3071 1697,3075 "/>
   <polygon class="fil127" points="1701,1285 1705,1285 1705,3067 1701,3071 "/>
   <polygon class="fil128" points="1705,1285 1709,1285 1709,3063 1705,3067 "/>
   <polygon class="fil128" points="1709,1285 1713,1285 1713,3059 1709,3063 "/>
   <polygon class="fil128" points="1713,1285 1717,1285 1717,3056 1713,3059 "/>
   <polygon class="fil128" points="1717,1285 1721,1285 1721,3052 1717,3056 "/>
   <polygon class="fil129" points="1721,1285 1724,1285 1724,3048 1721,3052 "/>
   <polygon class="fil129" points="1724,1285 1728,1285 1728,3044 1724,3048 "/>
   <polygon class="fil130" points="1728,1285 1732,1285 1732,3039 1729,3043 1728,3044 "/>
   <polygon class="fil130" points="1732,1285 1736,1285 1736,3035 1732,3039 "/>
   <polygon class="fil130" points="1736,1285 1740,1285 1740,3031 1736,3035 "/>
   <polygon class="fil130" points="1740,1285 1744,1285 1744,3027 1740,3031 "/>
   <polygon class="fil130" points="1744,1285 1748,1285 1748,3023 1744,3027 "/>
   <polygon class="fil130" points="1748,1285 1752,1285 1752,3018 1748,3023 "/>
   <polygon class="fil131" points="1752,1285 1756,1285 1756,3014 1752,3018 "/>
   <polygon class="fil131" points="1756,1285 1759,1285 1759,3010 1756,3014 "/>
   <polygon class="fil131" points="1759,1285 1763,1285 1763,3005 1759,3010 "/>
   <polygon class="fil131" points="1763,1285 1767,1285 1767,3001 1763,3005 "/>
   <polygon class="fil131" points="1767,1285 1771,1285 1771,2996 1767,3001 "/>
   <polygon class="fil131" points="1771,1285 1775,1285 1775,2992 1771,2996 "/>
   <polygon class="fil131" points="1775,1285 1779,1285 1779,2987 1775,2992 "/>
   <polygon class="fil131" points="1779,1285 1783,1285 1783,2983 1779,2987 "/>
   <polygon class="fil131" points="1783,1285 1787,1285 1787,2978 1783,2983 "/>
   <polygon class="fil132" points="1787,1285 1791,1285 1791,2973 1787,2978 "/>
   <polygon class="fil132" points="1791,1285 1794,1285 1794,2968 1791,2973 "/>
   <polygon class="fil133" points="1794,1285 1798,1285 1798,2963 1794,2968 "/>
   <polygon class="fil133" points="1798,1285 1802,1285 1802,2959 1798,2963 "/>
   <polygon class="fil133" points="1802,1285 1806,1285 1806,2954 1802,2959 "/>
   <polygon class="fil133" points="1806,1285 1810,1285 1810,2949 1806,2954 "/>
   <polygon class="fil134" points="1810,1285 1814,1285 1814,2943 1810,2949 "/>
   <polygon class="fil134" points="1814,1285 1818,1285 1818,2938 1814,2943 "/>
   <polygon class="fil135" points="1818,1285 1822,1285 1822,2933 1818,2938 "/>
   <polygon class="fil135" points="1822,1285 1825,1285 1825,2928 1822,2933 "/>
   <polygon class="fil135" points="1825,1285 1829,1285 1829,2922 1825,2928 "/>
   <polygon class="fil135" points="1829,1285 1833,1285 1833,2917 1829,2922 "/>
   <polygon class="fil136" points="1833,1285 1837,1285 1837,2912 1833,2917 "/>
   <polygon class="fil136" points="1837,1285 1841,1285 1841,2906 1837,2912 "/>
   <polygon class="fil136" points="1841,1285 1845,1285 1845,2900 1841,2906 "/>
   <polygon class="fil136" points="1845,1285 1849,1285 1849,2895 1845,2900 "/>
   <polygon class="fil137" points="1849,1285 1853,1285 1853,2889 1849,2895 "/>
   <polygon class="fil137" points="1853,1285 1857,1285 1857,2883 1853,2889 "/>
   <polygon class="fil137" points="1857,1285 1860,1285 1860,2877 1857,2883 "/>
   <polygon class="fil137" points="1860,1285 1864,1285 1864,2871 1860,2877 "/>
   <polygon class="fil138" points="1864,1285 1868,1285 1868,2865 1864,2871 "/>
   <polygon class="fil138" points="1868,1285 1872,1285 1872,2859 1868,2865 "/>
   <polygon class="fil139" points="1872,1285 1876,1285 1876,2852 1872,2859 "/>
   <polygon class="fil139" points="1876,1285 1880,1285 1880,2846 1876,2852 "/>
   <path class="fil140" d="M1880 1285l4 0 0 1554c-2,3 -3,5 -4,7l0 -1561z"/>
   <polygon class="fil140" points="1884,1285 1888,1285 1888,2833 1884,2839 "/>
   <path class="fil140" d="M1888 1285l4 0 0 1541c-2,2 -3,5 -4,7l0 -1548z"/>
   <polygon class="fil140" points="1892,1285 1895,1285 1895,2819 1892,2826 "/>
   <path class="fil140" d="M1895 1285l4 0 0 1527c-1,3 -2,5 -4,7l0 -1534z"/>
   <path class="fil140" d="M1899 1285l4 0 0 1520c-1,3 -2,5 -4,7l0 -1527z"/>
   <path class="fil140" d="M1903 1285l4 0 0 1513c-1,2 -3,5 -4,7l0 -1520z"/>
   <polygon class="fil140" points="1907,1285 1911,1285 1911,2791 1907,2798 "/>
   <path class="fil141" d="M1911 1285l4 0 0 1498c-1,3 -3,5 -4,8l0 -1506z"/>
   <path class="fil141" d="M1915 1285l4 0 0 1490c-2,3 -3,6 -4,8l0 -1498z"/>
   <polygon class="fil142" points="1919,1285 1923,1285 1923,2768 1919,2775 "/>
   <path class="fil142" d="M1923 1285l3 0 0 1475c-1,2 -2,5 -3,8l0 -1483z"/>
   <path class="fil142" d="M1926 1285l4 0 0 1466c-1,3 -2,6 -4,9l0 -1475z"/>
   <path class="fil142" d="M1930 1285l4 0 0 1458c-1,3 -2,6 -4,8l0 -1466z"/>
   <path class="fil142" d="M1934 1285l4 0 0 1450c-1,2 -2,5 -4,8l0 -1458z"/>
   <path class="fil142" d="M1938 1285l4 0 0 1441c-1,3 -3,6 -4,9l0 -1450z"/>
   <path class="fil143" d="M1942 1285l4 0 0 1432c-1,3 -3,6 -4,9l0 -1441z"/>
   <path class="fil143" d="M1946 1285l4 0 0 1422c-1,4 -3,7 -4,10l0 -1432z"/>
   <path class="fil143" d="M1950 1285l4 0 0 1413c-2,3 -3,6 -4,9l0 -1422z"/>
   <path class="fil143" d="M1954 1285l4 0 0 1403c-2,3 -3,7 -4,10l0 -1413z"/>
   <path class="fil144" d="M1958 1285l3 0 0 1393c-1,3 -2,7 -3,10l0 -1403z"/>
   <path class="fil144" d="M1961 1285l2 0c1,0 2,0 2,0l0 1383c-1,3 -2,7 -4,10l0 -1393z"/>
   <path class="fil144" d="M1969 1286l0 1371c-1,3 -2,7 -4,11l0 -1383c2,1 3,1 4,1z"/>
   <path class="fil144" d="M1973 1287l0 1358c-1,4 -2,8 -4,12l0 -1371c2,0 3,1 4,1z"/>
   <path class="fil145" d="M1977 1288l0 1346c-1,4 -3,8 -4,11l0 -1358c1,0 3,1 4,1z"/>
   <path class="fil145" d="M1981 1289l0 1333c-1,4 -3,8 -4,12l0 -1346c1,0 3,1 4,1z"/>
   <path class="fil145" d="M1985 1291l0 1318c-1,4 -3,8 -4,13l0 -1333c1,1 3,2 4,2z"/>
   <path class="fil145" d="M1989 1294l0 1301c-2,5 -3,9 -4,14l0 -1318c1,1 2,2 4,3z"/>
   <path class="fil146" d="M1993 1296l0 1285c-2,5 -3,10 -4,14l0 -1301c1,0 2,1 4,2z"/>
   <path class="fil146" d="M1996 1299l0 1267c-1,5 -2,10 -3,15l0 -1285c1,1 2,2 3,3z"/>
   <path class="fil146" d="M2000 1303l0 1247c-1,5 -2,11 -4,16l0 -1267c2,1 3,2 4,4z"/>
   <path class="fil146" d="M2004 1307l0 1225c-1,6 -2,12 -4,18l0 -1247c2,1 3,2 4,4z"/>
   <path class="fil147" d="M2008 1312l0 1201c-1,6 -2,13 -4,19l0 -1225c2,1 3,3 4,5z"/>
   <path class="fil147" d="M2012 1317l0 1174c-1,7 -3,14 -4,22l0 -1201c1,1 3,3 4,5z"/>
   <path class="fil147" d="M2016 1325l0 1140c-1,9 -3,17 -4,26l0 -1174c1,3 3,5 4,8z"/>
   <path class="fil147" d="M2020 1335l0 1099c-1,10 -3,21 -4,31l0 -1140c1,3 3,6 4,10l0 0z"/>
   <polygon class="fil147" points="2020,1335 2020,2434 2020,2434 2020,1335 "/>
   <path class="fil8" d="M2038 1281c0,45 -5,88 -15,129 -1,4 -2,8 -3,12 -58,210 -241,367 -461,380 -10,1 -21,1 -31,1 -11,0 -23,0 -35,-1 -134,-10 -253,-72 -339,-167 -8,-8 -16,-17 -23,-27 -54,-68 -91,-151 -106,-242 -1,-7 -2,-15 -3,-23l-1 -2c-2,-20 -3,-40 -3,-60 0,-124 42,-237 113,-327 93,-118 237,-194 397,-194 282,0 510,233 510,521z"/>
   <path class="fil78" d="M1139 4323c0,16 -13,29 -29,29l-2 0c-16,0 -29,-13 -29,-29l0 -2c0,-16 13,-29 29,-29l2 0c16,0 29,13 29,29l0 2z"/>
   <path class="fil78" d="M1713 4325c0,16 -13,29 -29,29l-2 0c-16,0 -29,-13 -29,-29l0 -2c0,-16 13,-29 29,-29l2 0c16,0 29,13 29,29l0 2z"/>
   <path class="fil78" d="M1140 4137c0,16 -13,29 -29,29l-2 0c-16,0 -29,-13 -29,-29l0 -2c0,-16 13,-29 29,-29l2 0c16,0 29,13 29,29l0 2z"/>
   <path class="fil78" d="M1719 4122c0,16 -13,29 -29,29l-2 0c-16,0 -29,-13 -29,-29l0 -2c0,-16 13,-29 29,-29l2 0c16,0 29,13 29,29l0 2z"/>
   <path class="fil8" d="M1021 2815c0,0 390,0 460,408 69,408 -61,616 -61,616l-391 -52 -8 -972z"/>
   <path class="fil148" d="M1021 1344c-1,3 -1,7 -1,11l0 296c35,48 70,96 111,138l0 -835c-71,90 -113,203 -113,327 0,20 1,40 3,60l0 3z"/>
   <path class="fil149" d="M2288 4778l-697 0c-1,6 -2,-27 -1,-51 0,-8 0,-15 1,-19 3,-25 11,-50 21,-74 1,-3 2,-6 3,-8 7,-18 13,-34 18,-49 10,-30 16,-58 16,-101l271 0c-1,1 4,38 13,61 10,24 17,39 33,53 4,3 8,6 12,9 8,5 15,9 23,11 12,4 24,6 37,7 19,1 39,0 59,-1 8,0 16,0 24,0 67,4 201,72 167,162z"/>
   <path class="fil149" d="M2283 4709c11,21 14,44 5,69l-697 0c-1,8 -2,-50 0,-69l692 0z"/>
   <path class="fil150" d="M1633 4577l4 0c43,0 78,-35 78,-79 0,-7 -1,-15 -3,-22l-63 0c0,43 -6,71 -16,101z"/>
   <path class="fil149" d="M1955 4727l-365 0c0,-8 0,-15 1,-19 3,-25 11,-50 21,-74 1,-3 2,-6 3,-8l233 0c57,0 104,45 107,101z"/>
   <path class="fil150" d="M1786 4709l-196 0c0,-4 0,-8 0,-10 2,-14 6,-27 11,-40 1,-1 2,-3 2,-4l125 0c31,0 56,24 58,54z"/>
   <path class="fil149" d="M1817 4859l-764 0c0,7 -1,-30 -1,-56 0,-9 1,-16 1,-21 4,-28 13,-54 23,-81 2,-3 3,-6 4,-9 8,-20 15,-37 20,-54 11,-32 18,-64 18,-110l296 0c-1,1 4,41 15,66 10,27 18,44 36,59 4,3 8,7 13,10 8,5 17,9 25,12 13,4 27,6 40,7 22,1 44,0 65,-1 9,0 18,0 26,1 75,4 221,78 183,177z"/>
   <path class="fil149" d="M1812 4783c12,23 16,48 5,76l-764 0c-1,9 -2,-55 0,-76l759 0z"/>
   <path class="fil150" d="M1100 4638l4 0c47,0 86,-38 86,-86 0,-8 -1,-16 -4,-24l-68 0c0,46 -7,78 -18,110z"/>
   <path class="fil149" d="M1453 4803l-401 0c0,-9 1,-16 1,-21 4,-28 13,-54 23,-81 2,-3 3,-6 4,-9l256 0c62,0 114,49 117,111z"/>
   <path class="fil150" d="M1267 4783l-215 0c0,-5 1,-9 1,-11 2,-15 7,-29 12,-44 1,-1 2,-3 2,-5l137 0c34,0 61,27 63,60z"/>
   <path class="fil149" d="M1227 3999l-228 0c-25,0 -44,-20 -44,-44l0 -274c0,-24 19,-44 44,-44l228 0c25,0 44,20 44,44l0 274c0,24 -19,44 -44,44z"/>
   <path class="fil149" d="M1164 3524l-148 0c-16,0 -29,-13 -29,-28l0 -177c0,-16 13,-29 29,-29l148 0c16,0 28,13 28,29l0 177c0,15 -12,28 -28,28z"/>
   <polygon class="fil148" points="1632,2594 1672,2594 1672,962 1632,962 "/>
   <path class="fil149" d="M1842 1437c-19,0 -34,15 -34,34l0 104 0 2 0 4c0,48 39,87 87,87 48,0 87,-39 87,-87l0 -4 0 -2 0 -104c0,-19 -16,-34 -35,-34l-105 0z"/>
   <path class="fil151" d="M1813 962c-7,-94 -85,-167 -180,-167 -95,0 -173,73 -180,167l360 0z"/>
   <polygon class="fil152" points="1644,962 1445,962 1445,683 1644,683 "/>
   <path class="fil151" d="M1617 962c-7,-94 -85,-167 -180,-167 -95,0 -173,73 -180,167l360 0z"/>
   <path class="fil145" d="M1592 1560c0,9 -1,17 -1,26 -6,84 -42,160 -98,216 -45,44 -101,76 -165,88 -19,4 -40,6 -60,6 -49,0 -95,-11 -137,-32 -41,-19 -77,-47 -106,-82 -2,-2 -4,-4 -5,-6 -18,-21 -32,-45 -44,-71 -21,-44 -32,-93 -32,-145 0,-51 11,-101 32,-144 12,-26 27,-51 45,-72l1 -1c1,-2 2,-3 3,-4 17,-20 36,-38 58,-54 15,-11 31,-20 48,-29 42,-20 88,-31 137,-31 69,0 133,22 185,60 84,61 139,161 139,275z"/>
   <path class="fil8" d="M1603 1662c0,129 -101,234 -225,234 -125,0 -226,-105 -226,-234 0,-129 101,-233 226,-233 124,0 225,104 225,233z"/>
   <path class="fil8" d="M2353 2278c-23,-126 -52,-251 -87,-374 -240,26 -488,-52 -671,-235 -60,-60 -108,-126 -146,-197 -88,100 -169,208 -257,308 39,56 84,109 133,158 227,228 529,353 851,353 60,0 119,-5 177,-13z"/>
   <path class="fil149" d="M2668 1963c0,27 -22,48 -48,48l-60 0c-26,0 -48,-21 -48,-48l0 0c0,-26 22,-47 48,-47l60 0c26,0 48,21 48,47l0 0z"/>
   <path class="fil149" d="M2644 2047c0,26 -22,48 -48,48l-60 0c-26,0 -47,-22 -47,-48l0 0c0,-26 21,-48 47,-48l60 0c26,0 48,22 48,48l0 0z"/>
   <path class="fil149" d="M2632 2119c0,26 -22,47 -48,47l-60 0c-26,0 -47,-21 -47,-47l0 0c0,-27 21,-48 47,-48l60 0c26,0 48,21 48,48l0 0z"/>
   <path class="fil149" d="M2565 1926l-199 -5c4,0 14,-33 15,-36 16,-43 44,-101 5,-139 -35,-36 -45,5 -45,5 0,29 -21,58 -35,83 -25,43 -57,71 -94,102 -34,30 -62,64 -74,108 -12,43 -10,88 6,130 13,35 39,61 68,85 51,42 344,29 353,29 29,0 55,-21 55,-47l0 -268c0,-26 -26,-47 -55,-47z"/>
   <path class="fil153" d="M3258 1972l-344 0c-87,0 -159,-71 -159,-159l0 -216c0,-87 72,-159 159,-159l344 0c88,0 159,72 159,159l0 216c0,88 -71,159 -159,159z"/>
   <path class="fil153" d="M2724 1700l-161 0c-44,0 -80,36 -80,80l0 76c0,44 36,81 80,81l161 0 0 -237z"/>
   <path class="fil153" d="M2724 1513c-14,-4 -29,-6 -45,-6 -92,0 -167,74 -170,166l215 0 0 -160z"/>
   <path class="fil153" d="M3187 1677l0 -27 -201 0c-36,0 -69,-15 -93,-39 -24,-24 -39,-57 -39,-93l0 -49c0,-36 15,-69 39,-93 24,-24 57,-39 93,-39l201 0c36,0 69,15 93,39 24,24 39,57 39,93l0 49c0,36 -15,69 -39,93 -24,24 -57,39 -93,39l0 27 0 27c102,0 185,-83 186,-186l0 -49c-1,-102 -84,-185 -186,-185l-201 0c-103,0 -186,83 -186,185l0 49c0,103 84,186 186,186l201 0 0 -27z"/>
   <path class="fil153" d="M3507 1740l-219 0c-57,0 -103,-47 -103,-103 0,-57 46,-103 103,-103l219 0c56,0 103,46 103,103 0,56 -47,103 -103,103z"/>
   <polygon class="fil153" points="4401,1668 3386,1668 3386,1579 4401,1579 "/>
   <path class="fil78" d="M3194 1628l-313 0c-23,0 -41,-18 -41,-40 0,-22 18,-41 41,-41l313 0c22,0 40,19 40,41 0,22 -18,40 -40,40z"/>
   <path class="fil78" d="M3037 1740l-156 0c-15,0 -27,-12 -27,-27 0,-15 12,-27 27,-27l156 0c15,0 27,12 27,27 0,15 -12,27 -27,27z"/>
   <path class="fil154" d="M5048 1116c0,184 -149,333 -333,333 -183,0 -332,-149 -332,-333 0,-183 149,-332 332,-332 184,0 333,149 333,332z"/>
   <path class="fil154" d="M4473 1149c0,90 -73,162 -162,162 -90,0 -162,-72 -162,-162 0,-89 72,-161 162,-161 89,0 162,72 162,161z"/>
   <path class="fil154" d="M4563 970c0,89 -73,161 -162,161 -90,0 -162,-72 -162,-161 0,-90 72,-162 162,-162 89,0 162,72 162,162z"/>
   <path class="fil154" d="M4035 727c0,21 -17,39 -39,39 -21,0 -39,-18 -39,-39 0,-22 18,-39 39,-39 22,0 39,17 39,39z"/>
   <path class="fil154" d="M4604 691c0,35 -28,63 -62,63 -35,0 -63,-28 -63,-63 0,-35 28,-63 63,-63 34,0 62,28 62,63z"/>
   <path class="fil154" d="M4311 700c0,60 -48,108 -108,108 -60,0 -108,-48 -108,-108 0,-60 48,-108 108,-108 60,0 108,48 108,108z"/>
   <path class="fil154" d="M3975 1101c0,24 -19,42 -42,42 -23,0 -42,-18 -42,-42 0,-23 19,-41 42,-41 23,0 42,18 42,41z"/>
   <path class="fil154" d="M4460 1307c0,0 103,157 -18,220 0,0 300,-68 304,-381l-286 161z"/>
   <path class="fil154" d="M5105 849l0 0c-72,0 -130,-58 -130,-130 0,-71 58,-129 130,-129 71,0 129,58 129,129 0,72 -58,130 -129,130z"/>
   <path class="fil154" d="M4858 412l0 0c-29,0 -53,-24 -53,-53 0,-29 24,-53 53,-53 29,0 52,24 52,53 0,29 -23,53 -52,53z"/>
   <path class="fil154" d="M5254 1262l0 0c-20,0 -36,-17 -36,-37 0,-20 16,-36 36,-36 20,0 37,16 37,36 0,20 -17,37 -37,37z"/>
   <path class="fil154" d="M4647 1739l0 0c-15,0 -28,-12 -28,-28 0,-15 13,-28 28,-28 16,0 29,13 29,28 0,16 -13,28 -29,28z"/>
   <path class="fil154" d="M3574 1080c0,69 -56,125 -125,125 -69,0 -126,-56 -126,-125 0,-70 57,-126 126,-126 69,0 125,56 125,126z"/>
   <path class="fil154" d="M3574 663c0,31 -25,56 -56,56 -32,0 -57,-25 -57,-56 0,-32 25,-57 57,-57 31,0 56,25 56,57z"/>
   <path class="fil154" d="M3825 877c0,16 -12,29 -28,29 -16,0 -28,-13 -28,-29 0,-15 12,-28 28,-28 16,0 28,13 28,28z"/>
   <path class="fil153" d="M5066 2034l0 0c10,-15 30,-18 45,-7l26 19c15,10 18,30 8,45 -11,14 -31,17 -45,7l-27 -20c-14,-10 -17,-30 -7,-44z"/>
   <path class="fil153" d="M5137 2084l0 0c4,-5 11,-6 16,-3l12 9c5,4 6,11 2,16 -3,4 -10,6 -15,2l-12 -9c-5,-3 -6,-10 -3,-15z"/>
   <polygon class="fil153" points="5160,2097 5248,2161 5157,2103 "/>
   <path class="fil153" d="M5055 2043l-1 2c-4,12 -23,83 -23,83l3 0 -1 -2 -163 65 -10 34 5 2 9 -32 162 -65 0 -1c0,0 5,-20 11,-41 3,-10 6,-20 8,-28 1,-4 2,-8 3,-10 0,-1 1,-2 1,-3l0 -1 0 0 0 0 0 0 0 0 0 0 0 0 -4 -3z"/>
   <polygon class="fil153" points="5059,2040 5001,2092 4801,2030 4731,2048 4733,2053 4801,2035 5003,2098 5062,2044 "/>
   <polygon class="fil153" points="5061,2039 4922,2040 4777,1953 4694,1940 4693,1945 4775,1957 4921,2045 5061,2044 "/>
   <polygon class="fil153" points="5103,2087 5127,2182 5225,2190 5246,2205 5249,2201 5227,2185 5131,2177 5108,2086 "/>
   <path class="fil153" d="M5081 2022l-1 0 0 1 1 -1 -1 0 0 1c1,-1 3,-2 5,-3 10,-6 31,-16 50,-25 19,-10 35,-18 35,-18l2 0 11 -175 27 -18 -2 -4 -30 20 -11 175 2 0 -1 -2c0,0 -22,11 -44,22 -11,5 -23,11 -31,15 -5,3 -8,4 -11,6 -1,1 -2,1 -3,2l-1 1 -1 0 4 3z"/>
   <polygon class="fil153" points="5079,2025 5135,1945 5036,1783 5034,1719 5030,1719 5031,1785 5129,1945 5075,2022 "/>
   <polygon class="fil153" points="5076,2027 5106,1949 4984,1777 4980,1707 4975,1707 4979,1779 5100,1950 5071,2025 "/>
   <polygon class="fil153" points="5078,2023 5030,1888 4902,1776 4865,1703 4860,1705 4898,1779 5026,1891 5073,2025 "/>
   <polygon class="fil153" points="5127,2053 5221,2047 5258,2135 5281,2152 5284,2148 5262,2132 5224,2041 5127,2048 "/>
   <polygon class="fil78" points="5121,2079 5075,2086 5000,2180 5081,2137 "/>
   <path class="fil7" d="M4936 2241l106 -145c10,-13 28,-16 41,-7 14,10 17,28 7,41l-106 146c-9,13 -28,16 -41,7 -13,-10 -16,-28 -7,-42z"/>
   <polygon class="fil78" points="5132,2064 5124,2018 5190,1918 5174,2008 "/>
   <path class="fil7" d="M5229 1838l-106 146c-9,13 -6,32 7,41 13,10 31,7 41,-6l106 -146c9,-13 6,-32 -7,-41 -13,-10 -31,-7 -41,6z"/>
   <path class="fil153" d="M4881 1895l0 0c7,-9 21,-11 30,-5l156 114c9,6 11,20 4,29 -6,10 -20,12 -29,5l-156 -113c-9,-7 -11,-20 -5,-30z"/>
   <path class="fil153" d="M4875 3278l0 0c-7,-10 -21,-12 -31,-5l-18 13c-10,7 -12,21 -5,31 7,10 21,12 31,5l18 -14c10,-7 12,-20 5,-30z"/>
   <path class="fil153" d="M4826 3312l0 0c-2,-3 -7,-4 -11,-1l-8 6c-3,2 -4,7 -1,10 2,3 7,4 10,2l8 -6c4,-3 4,-7 2,-11z"/>
   <polygon class="fil153" points="4811,3321 4750,3365 4813,3325 "/>
   <path class="fil153" d="M4879 3287l0 0c1,2 5,16 9,30 4,13 7,26 7,26l0 1 111 44 6 22 3 -1 -6 -24 -112 -44 0 2 1 -1c0,0 -3,-13 -7,-28 -2,-7 -4,-14 -6,-19 0,-3 -1,-5 -2,-7l0 -2 -1 -1 -3 2z"/>
   <polygon class="fil153" points="4877,3285 4918,3322 5056,3279 5102,3291 5103,3288 5055,3276 4919,3318 4879,3282 "/>
   <polygon class="fil153" points="4878,3285 4974,3286 5074,3226 5129,3217 5129,3214 5072,3223 4973,3282 4878,3281 "/>
   <polygon class="fil153" points="4846,3314 4831,3376 4765,3381 4750,3393 4752,3395 4766,3385 4833,3379 4850,3314 "/>
   <path class="fil153" d="M4867 3268l-1 -1c-8,-5 -61,-31 -61,-31l-1 2 2 0 -8 -120 -20 -13 -2 3 19 12 8 119 0 0c0,0 16,8 31,15 7,4 15,8 21,11 3,2 5,3 7,4l2 1 1 0 0 0 1 0 -1 0 0 0 1 0 -1 0 2 -2z"/>
   <polygon class="fil153" points="4869,3270 4832,3217 4899,3108 4900,3063 4896,3063 4895,3107 4828,3217 4866,3272 "/>
   <polygon class="fil153" points="4871,3272 4851,3221 4934,3104 4937,3055 4934,3055 4931,3103 4848,3220 4868,3274 "/>
   <polygon class="fil153" points="4870,3272 4902,3180 4990,3104 5015,3053 5012,3052 4987,3102 4899,3178 4867,3271 "/>
   <polygon class="fil153" points="4833,3288 4767,3283 4741,3345 4726,3356 4728,3359 4743,3347 4769,3287 4833,3291 "/>
   <polygon class="fil78" points="4837,3309 4868,3314 4920,3378 4865,3348 "/>
   <path class="fil7" d="M4963 3420l-72 -100c-7,-9 -19,-11 -28,-4 -9,6 -11,19 -5,28l73 100c6,9 19,11 28,4 9,-6 11,-19 4,-28z"/>
   <polygon class="fil78" points="4830,3299 4835,3268 4790,3199 4801,3260 "/>
   <path class="fil7" d="M4763 3145l73 99c6,9 4,22 -5,28 -9,7 -21,5 -28,-4l-72 -100c-7,-9 -5,-21 4,-28 9,-6 22,-4 28,5z"/>
   <path class="fil153" d="M5001 3183l0 0c-5,-6 -14,-7 -20,-3l-107 77c-6,5 -8,14 -3,21 5,6 14,8 20,3l107 -77c6,-5 7,-14 3,-21z"/>
   <path class="fil155" d="M2608 402l0 0c-34,0 -62,-28 -62,-62 0,-34 28,-61 62,-61 33,0 61,27 61,61 0,34 -28,62 -61,62z"/>
   <path class="fil155" d="M2751 606l0 0c-11,0 -21,-9 -21,-20 0,-11 10,-21 21,-21 11,0 20,10 20,21 0,11 -9,20 -20,20z"/>
   <path class="fil155" d="M2992 330l0 0c-31,0 -57,-25 -57,-56 0,-31 26,-57 57,-57 31,0 56,26 56,57 0,31 -25,56 -56,56z"/>
   <path class="fil155" d="M3227 514l0 0c-8,0 -15,-7 -15,-15 0,-9 7,-15 15,-15 9,0 15,6 15,15 0,8 -6,15 -15,15z"/>
   <path class="fil156" d="M1686 1168l-407 0c-87,0 -159,-71 -159,-159l0 -850c0,-87 72,-159 159,-159l407 0c87,0 159,72 159,159l0 850c0,88 -72,159 -159,159z"/>
   <path class="fil156" d="M2037 1267c0,-3 0,-7 0,-10 0,-302 -245,-547 -547,-547 -302,0 -547,245 -547,547 0,3 0,7 0,10l1094 0z"/>
   <path class="fil7" d="M1657 371l-362 0c-44,0 -81,-37 -81,-82 0,-44 37,-81 81,-81l362 0c44,0 81,37 81,81 0,45 -37,82 -81,82z"/>
   <path class="fil7" d="M1494 997l0 -5c-26,0 -51,-11 -69,-29 -17,-18 -28,-42 -28,-69l0 -243c0,-27 11,-52 28,-69 18,-18 43,-29 69,-29 27,0 52,11 69,29 18,17 29,42 29,69l0 243c0,27 -11,51 -29,69 -17,18 -42,29 -69,29l0 5 0 6c60,0 109,-49 109,-109l0 -243c0,-60 -49,-109 -109,-109 -59,0 -108,49 -108,109l0 243c0,60 49,109 108,109l0 -6z"/>
   <path class="fil7" d="M1490 915l0 0c-23,0 -43,-19 -43,-43l0 -174c0,-23 20,-43 43,-43 24,0 43,20 43,43l0 174c0,24 -19,43 -43,43z"/>
   <path class="fil7" d="M1602 835c-19,0 -36,-14 -38,-34 -3,-21 12,-40 33,-43 3,-1 166,-23 241,-129 36,-50 46,-113 30,-187 -4,-21 9,-41 30,-46 21,-4 42,9 46,30 20,96 6,180 -43,248 -95,134 -286,160 -294,161 -2,0 -3,0 -5,0z"/>
   <path class="fil7" d="M1664 406l0 -5 -366 0c-30,0 -57,-12 -77,-32 -19,-19 -31,-46 -31,-76 0,-30 12,-56 31,-76 20,-20 47,-32 77,-32l366 0c30,0 57,12 76,32 20,20 32,46 32,76 0,30 -12,57 -32,76 -19,20 -46,32 -76,32l0 5 0 6c65,0 119,-53 119,-119 0,-65 -54,-119 -119,-119l-366 0c-66,0 -119,54 -119,119 0,66 53,119 119,119l366 0 0 -6z"/>
   <path class="fil7" d="M2045 1299l-1087 0c-17,0 -31,-14 -31,-31 0,-17 14,-31 31,-31l1087 0c18,0 32,14 32,31 0,17 -14,31 -32,31z"/>
   <path class="fil7" d="M1164 935c22,-16 47,-28 74,-34 12,-3 19,-15 16,-27 -3,-12 -14,-19 -26,-16 -33,7 -64,22 -90,42 -10,7 -12,21 -5,31 7,9 21,12 31,4z"/>
   <path class="fil7" d="M1019 1236c11,-90 42,-185 98,-255 7,-9 6,-23 -4,-31 -9,-7 -23,-6 -31,4 -62,78 -95,180 -107,276 -2,12 7,23 19,25 12,1 23,-7 25,-19z"/>
   <path class="fil7" d="M1236 90l207 0c12,0 22,-9 22,-22 0,-12 -10,-22 -22,-22l-207 0c-12,0 -22,10 -22,22 0,13 10,22 22,22z"/>
   <path class="fil149" d="M1647 330l-330 0c-17,0 -31,-14 -31,-30 0,-17 14,-31 31,-31l330 0c16,0 30,14 30,31 0,16 -14,30 -30,30z"/>
   <path class="fil7" d="M1874 5001l-840 0c-46,0 -85,-38 -85,-85 0,-47 39,-85 85,-85l840 0c47,0 85,38 85,85 0,47 -38,85 -85,85z"/>
   <path class="fil8" d="M2734 1942l0 1571 1 3c0,2 1,27 8,65 10,56 31,142 77,220 23,39 53,77 93,106 40,30 89,51 146,57 30,3 57,-19 60,-49 3,-31 -19,-57 -49,-60 -25,-3 -46,-9 -65,-19 -16,-8 -31,-19 -45,-32 -24,-22 -44,-52 -60,-84 -24,-48 -38,-102 -47,-143 -4,-21 -6,-38 -8,-50 0,-6 -1,-11 -1,-14 0,-1 0,-3 0,-3l0 -1 0 0 -55 4 55 0 0 -1571c0,-30 -25,-55 -55,-55 -30,0 -55,25 -55,55z"/>
   <polygon class="fil153" points="3945,4611 3088,4611 3088,2612 3945,2612 "/>
   <path class="fil153" d="M3521 2846l0 0c-78,0 -142,-64 -142,-142l0 -276c0,-78 64,-142 142,-142 79,0 143,64 143,142l0 276c0,78 -64,142 -143,142z"/>
   <polygon class="fil153" points="3950,4753 3083,4753 3083,4651 3950,4651 "/>
   <polygon class="fil78" points="4011,2765 3022,2765 3022,2714 4011,2714 "/>
   <path class="fil7" d="M3982 4650l-924 0c-15,0 -28,-13 -28,-28 0,-15 13,-27 28,-27l924 0c15,0 27,12 27,27 0,15 -12,28 -27,28z"/>
   <path class="fil7" d="M3472 2705l0 0c-15,0 -27,-12 -27,-27l0 -238c0,-15 12,-27 27,-27 15,0 27,12 27,27l0 238c0,15 -12,27 -27,27z"/>
   <path class="fil155" d="M4133 2359c0,38 -31,69 -69,69 -38,0 -69,-31 -69,-69 0,-38 31,-69 69,-69 38,0 69,31 69,69z"/>
   <path class="fil155" d="M2465 2869c0,29 -23,52 -52,52 -29,0 -53,-23 -53,-52 0,-29 24,-53 53,-53 29,0 52,24 52,53z"/>
   <path class="fil155" d="M2538 3148c0,14 -11,24 -24,24 -14,0 -25,-10 -25,-24 0,-13 11,-24 25,-24 13,0 24,11 24,24z"/>
   <path class="fil155" d="M4651 3780c0,49 -40,89 -89,89 -49,0 -89,-40 -89,-89 0,-49 40,-89 89,-89 49,0 89,40 89,89z"/>
   <path class="fil155" d="M4384 3355c0,20 -16,36 -36,36 -21,0 -37,-16 -37,-36 0,-20 16,-37 37,-37 20,0 36,17 36,37z"/>
   <path class="fil155" d="M5016 2812c0,20 -17,37 -37,37 -20,0 -36,-17 -36,-37 0,-20 16,-36 36,-36 20,0 37,16 37,36z"/>
   <path class="fil155" d="M5202 2513c0,15 -13,28 -29,28 -15,0 -28,-13 -28,-28 0,-16 13,-29 28,-29 16,0 29,13 29,29z"/>
   <path class="fil155" d="M4425 4164c0,16 -13,29 -29,29 -15,0 -28,-13 -28,-29 0,-15 13,-28 28,-28 16,0 29,13 29,28z"/>
   <path class="fil155" d="M4643 4508c0,14 -11,25 -24,25 -14,0 -24,-11 -24,-25 0,-13 10,-24 24,-24 13,0 24,11 24,24z"/>
   <path class="fil155" d="M4246 3788c0,13 -10,24 -24,24 -13,0 -24,-11 -24,-24 0,-14 11,-24 24,-24 14,0 24,10 24,24z"/>
   <path class="fil155" d="M4344 3035c0,9 -8,16 -17,16 -9,0 -16,-7 -16,-16 0,-9 7,-16 16,-16 9,0 17,7 17,16z"/>
   <path class="fil155" d="M2449 1177c0,20 -16,36 -36,36 -21,0 -37,-16 -37,-36 0,-20 16,-37 37,-37 20,0 36,17 36,37z"/>
   <path class="fil155" d="M4624 1235c0,22 -18,40 -40,40 -22,0 -40,-18 -40,-40 0,-22 18,-39 40,-39 22,0 40,17 40,39z"/>
   <path class="fil155" d="M4491 990c0,11 -9,20 -20,20 -11,0 -19,-9 -19,-20 0,-11 8,-20 19,-20 11,0 20,9 20,20z"/>
   <path class="fil155" d="M4796 1063c0,22 -18,40 -40,40 -22,0 -39,-18 -39,-40 0,-22 17,-40 39,-40 22,0 40,18 40,40z"/>
   <path class="fil157 str0" d="M3572 3668l0 -370c-33,-4 -67,-3 -100,3 -171,30 -284,198 -252,368 30,166 186,277 352,255l0 -256zm37 -37l67 0 0 37 -67 0 0 287 -15 3c-191,35 -375,-91 -411,-283 -35,-190 92,-377 283,-410 42,-8 85,-8 126,-1l17 3c35,7 68,20 100,38 59,34 111,87 139,149l8 17 -34 16 -8 -17c-25,-56 -71,-103 -124,-133 -26,-15 -53,-25 -81,-32l0 326z"/>
  </g>
 </g>
</svg>
